<svg width="22" height="22" viewBox="0 0 22 22" fill="none" xmlns="http://www.w3.org/2000/svg">
<path d="M12 13C12 12.4477 12.4477 12 13 12H21C21.5523 12 22 12.4477 22 13V18C22 20.2091 20.2091 22 18 22H13C12.4477 22 12 21.5523 12 21V13Z" fill="#FF8200"/>
<path d="M0 13C0 12.4477 0.447715 12 1 12H9C9.55228 12 10 12.4477 10 13V21C10 21.5523 9.55229 22 9 22H4C1.79086 22 0 20.2091 0 18V13Z" fill="#FF8200"/>
<path d="M12 1C12 0.447715 12.4477 0 13 0H18C20.2091 0 22 1.79086 22 4V9C22 9.55228 21.5523 10 21 10H13C12.4477 10 12 9.55229 12 9V1Z" fill="#FF8200"/>
<path d="M0 4C0 1.79086 1.79086 0 4 0H9C9.55228 0 10 0.447715 10 1V9C10 9.55228 9.55229 10 9 10H1C0.447715 10 0 9.55229 0 9V4Z" fill="#FF8200"/>
</svg>
