<svg width="120" height="110" viewBox="0 0 120 110" fill="none" xmlns="http://www.w3.org/2000/svg">
<path d="M15.737 83.2262C17.1692 82.4874 18.8532 82.3937 20.4407 82.656C21.292 82.7952 22.1835 83.0522 22.7617 83.6921C23.34 84.3319 23.4524 85.459 22.7858 86.0104C22.3896 86.3397 21.8355 86.3879 21.3214 86.3826C20.0793 86.3665 18.7006 86.1497 17.7073 86.8966C17.1398 87.3222 16.7623 88.0317 16.085 88.2351C15.4077 88.4386 14.6769 88.0477 14.3235 87.4507C14.0015 86.828 13.9306 86.1056 14.1254 85.4322C14.2065 84.9654 14.3941 84.5236 14.6736 84.141C14.9531 83.7585 15.317 83.4454 15.737 83.2262Z" fill="#FF725E"/>
<path d="M12.463 76.9002C13.3357 78.1504 15.0357 77.7382 15.8254 76.9752C16.6152 76.2122 16.9444 75.1012 17.2496 74.0545C17.9403 71.6451 18.6391 69.1205 18.1251 66.6683C18.0004 65.9255 17.6745 65.231 17.1827 64.6605C16.933 64.3796 16.6138 64.1695 16.2571 64.051C15.9004 63.9326 15.5189 63.9101 15.1508 63.9859C14.2941 64.2107 13.7614 65.0567 13.3759 65.8598C12.2411 68.2173 11.6466 70.7983 11.6357 73.4146C11.6357 74.6327 11.775 75.907 12.463 76.9109" fill="#FF725E"/>
<path d="M10.0615 78.6939C11.0092 77.5668 11.1913 75.9231 10.7683 74.5123C10.3453 73.1014 9.3896 71.8994 8.2893 70.9169C6.99539 69.7655 5.48959 68.8771 3.85601 68.3014C3.22575 68.0475 2.54842 67.9315 1.86959 67.9614C1.52921 67.9816 1.19891 68.0846 0.90734 68.2615C0.61577 68.4383 0.371736 68.6835 0.196401 68.976C-0.269416 69.8648 0.177662 70.9463 0.662218 71.8271C1.51586 73.3795 2.48974 74.8627 3.57491 76.2631C4.44765 77.3875 5.44889 78.4985 6.78744 79.0071C8.126 79.5158 9.49936 79.4569 10.2061 78.5333" fill="#FF725E"/>
<path d="M12.4014 95.7417C12.4512 95.5565 12.4782 95.3659 12.4817 95.1742C12.5219 94.7619 12.5728 94.2426 12.6317 93.6268C12.7093 92.8638 12.8255 92.1052 12.9797 91.354C13.1837 90.441 13.4604 89.5458 13.8069 88.6768C14.1464 87.808 14.607 86.9914 15.1749 86.2514C15.638 85.6492 16.2298 85.158 16.907 84.8138C17.3659 84.5851 17.8585 84.4314 18.366 84.3587C18.5567 84.3511 18.7461 84.3232 18.9309 84.2757C18.7396 84.2548 18.5466 84.2548 18.3553 84.2757C17.8287 84.3152 17.3136 84.4494 16.8347 84.6719C16.122 85.0076 15.4969 85.5043 15.0089 86.1229C14.4161 86.8736 13.9379 87.7081 13.5901 88.5992C13.2381 89.4822 12.9631 90.3941 12.7682 91.3245C12.6218 92.0843 12.5216 92.8522 12.4683 93.6241C12.4175 94.2827 12.3987 94.8155 12.3907 95.1822C12.3767 95.3686 12.3803 95.556 12.4014 95.7417Z" fill="#263238"/>
<path d="M12.5084 94.5504C12.5245 94.4622 12.5299 94.3723 12.5245 94.2827C12.5245 94.0846 12.5245 93.8356 12.5245 93.5278C12.5245 92.8745 12.5245 91.9215 12.5593 90.7623C12.6155 88.4252 12.827 85.9114 13.2071 82.3669C13.5739 79.0366 14.0665 75.1574 14.5885 72.6356C14.701 72.0627 14.8134 71.546 14.9178 71.0936C15.0222 70.6411 15.1052 70.2503 15.1855 69.9344C15.2658 69.6185 15.3167 69.399 15.3622 69.2035C15.3884 69.1165 15.4037 69.0266 15.4077 68.9358C15.3683 69.0143 15.3378 69.0969 15.3167 69.1821C15.2605 69.3722 15.1882 69.6105 15.0999 69.9023C15.0115 70.1941 14.9018 70.6037 14.7893 71.0561C14.6769 71.5085 14.5457 72.0199 14.4252 72.5928C13.7787 75.5744 13.2934 78.5887 12.9716 81.6227C12.5807 85.1752 12.4067 88.4091 12.3906 90.7516C12.3906 91.9215 12.3906 92.8692 12.4308 93.5224C12.4495 93.8276 12.4656 94.0766 12.4763 94.2747C12.4759 94.3675 12.4866 94.4601 12.5084 94.5504Z" fill="#263238"/>
<path d="M12.5246 88.3127C12.545 88.0508 12.545 87.7876 12.5246 87.5257C12.4951 87.0224 12.4255 86.2915 12.2836 85.384C12.1118 84.3365 11.8803 83.2997 11.5902 82.2786C11.2535 81.0224 10.8194 79.7943 10.2918 78.6056C9.38918 76.4124 8.09567 74.4013 6.47429 72.6704C6.19229 72.3743 5.8928 72.0954 5.57746 71.8351C5.43825 71.72 5.30975 71.6049 5.19463 71.5112L4.84661 71.2729C4.63614 71.1148 4.41422 70.9726 4.18268 70.8473C4.1452 70.8982 5.12235 71.4737 6.35382 72.7855C7.921 74.5317 9.17856 76.5325 10.0723 78.7019C10.5879 79.8853 11.0243 81.1016 11.3788 82.3428C11.7187 83.4832 11.9436 84.5327 12.115 85.4161C12.2863 86.2996 12.3827 87.0224 12.4282 87.5257C12.4403 87.7901 12.4725 88.0532 12.5246 88.3127Z" fill="#263238"/>
<path d="M7.71899 99.1845L8.34544 107.746H19.343L19.9694 99.1845H7.71899Z" fill="#263238"/>
<path d="M21.2813 95.8113H6.65625V99.1872H21.2813V95.8113Z" fill="#263238"/>
<path d="M6.65625 107.419V108.356H7.34427H21.0404V107.419H6.65625Z" fill="#455A64"/>
<path d="M8.01887 110L7.34424 108.356H20.5156L19.7285 110H8.01887Z" fill="#455A64"/>
<path d="M19.7634 101.985C19.7498 102.013 19.7327 102.039 19.7125 102.062L19.5492 102.279L18.9067 103.101L18.88 103.136L18.8505 103.098L17.2764 100.922H17.3674L15.8173 103.114L15.7692 103.184L15.7156 103.12L13.8764 100.933H13.9835L13.8818 101.058L12.238 103.12L12.1845 103.187L12.1336 103.117L10.5836 100.922H10.6719L8.76316 103.096L8.72836 103.136L8.70426 103.093L8.10459 102.086L7.952 101.819C7.93163 101.79 7.91541 101.758 7.90381 101.725C7.90381 101.725 7.93058 101.752 7.96806 101.811L8.13939 102.078L8.76584 103.064H8.70694L10.5809 100.863L10.6291 100.807L10.6719 100.866L12.2354 103.05H12.131L13.7694 100.986L13.8711 100.86L13.9166 100.78L13.9701 100.844C14.6153 101.613 15.2337 102.354 15.804 103.037H15.7022L17.2657 100.855L17.3112 100.791L17.3567 100.855C17.9778 101.738 18.5052 102.491 18.8987 103.056H18.8425C19.1102 102.718 19.3458 102.451 19.5091 102.252L19.6884 102.044C19.7366 102.003 19.7616 101.983 19.7634 101.985Z" fill="#E0E0E0"/>
<path d="M20.1221 99.1283C20.1221 99.1657 17.3647 99.1979 13.9647 99.1979C10.5648 99.1979 7.80737 99.1657 7.80737 99.1283C7.80737 99.0908 10.5621 99.0613 13.9647 99.0613C17.3673 99.0613 20.1221 99.0908 20.1221 99.1283Z" fill="#455A64"/>
<path d="M20.6763 108.447C20.6763 108.485 17.6806 108.517 13.9835 108.517C10.2865 108.517 7.29077 108.485 7.29077 108.447C7.29077 108.41 10.2838 108.378 13.9835 108.378C17.6833 108.378 20.6763 108.41 20.6763 108.447Z" fill="#263238"/>
<path d="M45.8412 25.7594C44.9015 25.0821 43.5362 25.224 42.5804 25.8772C41.6247 26.5304 41.0304 27.6066 40.6797 28.7122C40.329 29.8179 40.1951 30.9744 39.9622 32.1095C39.7293 33.2446 39.3759 34.3877 38.6665 35.3033C39.9034 35.7917 41.2626 35.8782 42.5515 35.5505C43.8403 35.2229 44.9932 34.4978 45.8467 33.4781C46.7003 32.4584 47.2111 31.1958 47.3066 29.8694C47.4022 28.543 47.0778 27.2203 46.3793 26.0887" fill="#263238"/>
<path d="M42.369 32.9581C42.3502 32.9394 42.6528 32.661 43.0838 32.155C43.6408 31.5 44.118 30.781 44.5053 30.0133C44.8856 29.2465 45.1749 28.4379 45.3674 27.6039C45.5119 26.9614 45.5521 26.5518 45.5762 26.5545C45.5896 26.6504 45.5896 26.7477 45.5762 26.8436C45.5561 27.1061 45.5203 27.3671 45.4691 27.6253C45.3039 28.4788 45.0229 29.3056 44.6338 30.0829C44.2449 30.8618 43.7493 31.5826 43.1614 32.2246C42.9856 32.419 42.7988 32.6031 42.6019 32.7761C42.5314 32.8454 42.4532 32.9064 42.369 32.9581Z" fill="#455A64"/>
<path d="M39.2903 26.9962C42.0022 27.4433 44.9711 26.8302 47.0298 25.0071C46.2052 23.5802 42.9258 21.7036 41.2901 21.4894C39.6543 21.2752 37.9945 21.6206 36.4257 22.1292C34.857 22.6379 33.3444 23.3098 31.7622 23.7757C31.5855 23.6793 36.4846 26.5331 39.2903 26.9962Z" fill="#263238"/>
<path d="M31.7622 23.7757C31.8099 23.7886 31.8558 23.8075 31.8987 23.8319L32.2762 24.0193L33.663 24.71C35.1786 25.4827 36.7554 26.1292 38.3773 26.6428C39.2649 26.9317 40.1934 27.0745 41.1267 27.0658C41.8889 27.0475 42.6456 26.9315 43.3782 26.7205C44.0046 26.5438 44.4999 26.3564 44.8426 26.2279L45.2388 26.0887C45.2832 26.0686 45.33 26.0542 45.378 26.0458C45.339 26.0755 45.2956 26.099 45.2495 26.1154L44.864 26.2868C44.3878 26.4918 43.9007 26.6705 43.405 26.8222C42.6666 27.0486 41.9013 27.1756 41.1294 27.1997C40.1828 27.2164 39.2401 27.0753 38.3399 26.782C36.7085 26.2684 35.1278 25.6062 33.6174 24.8037C33.0365 24.5038 32.5707 24.2495 32.2521 24.0728L31.8854 23.8613C31.8403 23.839 31.7988 23.8101 31.7622 23.7757Z" fill="#455A64"/>
<path d="M38.9314 23.9764C39.0041 23.9242 39.0845 23.8836 39.1697 23.856C39.3959 23.7603 39.6296 23.6833 39.8684 23.6257C40.6565 23.4271 41.4779 23.3988 42.2778 23.5427C43.0795 23.6887 43.8413 24.0025 44.5132 24.4637C44.7149 24.6032 44.9064 24.7571 45.0861 24.9241C45.1545 24.9826 45.2156 25.0491 45.2681 25.1222C45.2494 25.141 44.9736 24.8759 44.465 24.5467C43.7934 24.1143 43.043 23.8189 42.257 23.6774C41.4709 23.5359 40.6646 23.5511 39.8844 23.7221C39.2928 23.8479 38.9394 24.0005 38.9314 23.9764Z" fill="#455A64"/>
<path d="M49.9237 23.3286C49.436 22.8041 48.7968 22.4447 48.0952 22.3006C47.5927 22.2214 47.0785 22.3259 46.6469 22.595C46.0044 22.8895 45.576 23.8105 45.4609 24.5092C45.3873 25.2171 45.5018 25.9318 45.7929 26.5813C46.0124 27.1167 46.3283 27.6735 46.8798 27.885C47.5518 28.1527 48.2933 27.8074 48.9305 27.4727C49.7577 27.0364 50.6679 26.4876 50.858 25.572C51.0293 24.7501 50.5287 23.9202 49.9237 23.3286Z" fill="#263238"/>
<path d="M47.3805 27.9787C47.2901 27.985 47.1992 27.9741 47.1128 27.9466C46.8783 27.893 46.6552 27.7978 46.4542 27.6655C46.1271 27.436 45.8498 27.1426 45.6391 26.803C45.4284 26.4635 45.2886 26.0848 45.2281 25.6898C45.113 24.8958 45.2879 24.087 45.7207 23.4116C45.8531 23.2112 46.0136 23.0309 46.1972 22.8761C46.2625 22.8176 46.3366 22.7697 46.4168 22.7343C46.185 22.9528 45.9801 23.1981 45.8064 23.4651C45.4146 24.1295 45.2598 24.9072 45.3673 25.671C45.4862 26.4337 45.8971 27.1201 46.5131 27.5852C46.7815 27.758 47.0737 27.8906 47.3805 27.9787Z" fill="#455A64"/>
<path d="M48.3229 23.8105C48.3229 23.8346 48.0927 23.8105 47.7313 23.8854C47.2631 23.965 46.8216 24.1582 46.4454 24.448C46.0693 24.7379 45.7699 25.1155 45.5735 25.5479C45.4182 25.8772 45.3754 26.1047 45.3513 26.0994C45.351 25.8949 45.3958 25.6929 45.4825 25.5077C45.6638 25.045 45.9677 24.6403 46.3615 24.337C46.7553 24.0338 47.2242 23.8434 47.7179 23.7864C47.9189 23.7505 48.1254 23.7587 48.3229 23.8105Z" fill="#455A64"/>
<path d="M49.0723 26.7044C48.8878 26.7431 48.6973 26.7431 48.5128 26.7044C48.0638 26.6318 47.6348 26.4664 47.2532 26.2189C46.8715 25.9714 46.5456 25.6472 46.2961 25.2668C46.1832 25.1167 46.1038 24.9442 46.0632 24.7608C46.1761 24.9053 46.2815 25.0554 46.3791 25.2106C46.9029 25.9171 47.6629 26.412 48.5208 26.6054C48.7063 26.6287 48.8903 26.6617 49.0723 26.7044Z" fill="#455A64"/>
<path d="M54.6087 10.714C52.7347 10.5722 50.8607 11.2655 49.3161 12.3203C47.7714 13.3751 46.4703 14.7725 45.2335 16.1861C44.9463 16.4737 44.7196 16.816 44.5669 17.1926C44.4942 17.3823 44.4771 17.5888 44.5174 17.7879C44.5577 17.987 44.6537 18.1705 44.7944 18.317C45.0996 18.5847 45.6752 18.5044 45.809 18.1216C45.37 18.6222 44.9095 19.1657 44.8346 19.8269C44.7596 20.4882 45.2656 21.2565 45.9268 21.1655C46.3605 21.1119 46.6711 20.7398 46.9468 20.4025C49.3562 17.4577 52.4617 15.0162 56.049 13.7231C59.6363 12.4301 63.6975 12.3364 67.2152 13.7927C69.0678 14.561 70.7784 15.7443 72.7515 16.0843C73.1129 16.1459 73.5305 16.162 73.7982 15.913C73.9143 15.7873 73.9919 15.631 74.0218 15.4625C74.0517 15.2941 74.0326 15.1206 73.9669 14.9626C73.8303 14.6491 73.6349 14.3647 73.3913 14.1247C73.9107 14.4486 74.6281 14.7565 75.0725 14.3362C75.4205 14.0069 75.3402 13.3965 75.0163 13.0297C74.6709 12.6947 74.261 12.4334 73.8116 12.2614C73.3806 12.0499 72.9389 11.7795 72.7408 11.3405C73.1209 11.6457 73.5439 11.9669 74.0311 11.9669C74.5184 11.9669 75.0109 11.4315 74.7861 11.0058C74.6747 10.8349 74.5168 10.6992 74.331 10.615C70.1441 8.26815 65.4039 7.08843 60.6054 7.19899C59.3097 7.2338 57.9792 7.37033 56.828 7.96197C55.6769 8.55361 54.7265 9.68871 54.6863 10.9844" fill="#455A64"/>
<path d="M49.5998 24.0487L50.8822 49.8052C51.257 54.2171 55.452 60.2647 62.3938 59.3518C68.3664 58.1069 69.3248 52.7099 68.9687 48.5925C68.8001 46.6382 68.0371 44.7776 68.0344 44.5768C68.0344 44.5768 73.485 43.7094 73.4047 37.1291C73.3672 33.9487 72.7542 27.4058 72.1331 21.4921C71.8117 18.4274 70.3478 15.5962 68.033 13.5622C65.7182 11.5282 62.7222 10.4406 59.6417 10.5159L59.0072 10.532C52.1806 11.1102 48.8449 17.2328 49.5998 24.0487Z" fill="#FFD5BE"/>
<path d="M68.0423 44.5768C68.0423 44.5768 62.0911 45.8457 57.6016 43.1767C57.6016 43.1767 59.9226 48.6085 68.6232 46.5819L68.0423 44.5768Z" fill="#FFB194"/>
<path d="M71.1237 24.4048C71.0086 24.5199 70.1225 24.5226 68.982 24.9402C67.8416 25.3578 67.0679 25.9227 66.926 25.9013C66.8564 25.9013 66.9581 25.7246 67.2901 25.4676C67.7861 25.104 68.3339 24.817 68.9151 24.6163C69.4692 24.4098 70.0535 24.2958 70.6445 24.2789C71.0273 24.2763 71.1799 24.3512 71.1237 24.4048Z" fill="#263238"/>
<path d="M61.4595 26.3832C61.2881 26.4206 60.4904 25.8692 59.2107 25.5452C57.931 25.2213 56.887 25.2909 56.7719 25.1811C56.7156 25.1303 56.9111 25.0339 57.3662 24.9937C58.0338 24.9511 58.7039 25.018 59.3499 25.1918C59.9761 25.3405 60.5715 25.5978 61.1088 25.9521C61.4541 26.1984 61.5425 26.3564 61.4595 26.3832Z" fill="#263238"/>
<path d="M59.7192 28.1688C59.7265 28.358 59.6589 28.5426 59.5311 28.6824C59.4034 28.8221 59.2257 28.906 59.0365 28.9157C58.9446 28.9253 58.8516 28.9164 58.7631 28.8895C58.6747 28.8626 58.5925 28.8183 58.5214 28.7592C58.4503 28.7001 58.3918 28.6273 58.3492 28.5452C58.3066 28.4632 58.2809 28.3734 58.2736 28.2812C58.2676 28.0921 58.3356 27.908 58.463 27.7681C58.5904 27.6282 58.7673 27.5434 58.9562 27.5316C59.0484 27.5221 59.1415 27.5311 59.2302 27.5581C59.3188 27.5852 59.4011 27.6297 59.4722 27.6891C59.5434 27.7485 59.6019 27.8215 59.6443 27.9039C59.6867 27.9863 59.7122 28.0764 59.7192 28.1688Z" fill="#263238"/>
<path d="M69.3461 27.9225C69.3527 28.1114 69.2854 28.2954 69.1584 28.4354C69.0314 28.5754 68.8548 28.6603 68.6661 28.6721C68.5741 28.682 68.481 28.6734 68.3924 28.6467C68.3037 28.6199 68.2214 28.5756 68.1502 28.5165C68.0791 28.4573 68.0205 28.3844 67.9781 28.3021C67.9356 28.2199 67.9101 28.1299 67.9031 28.0376C67.8958 27.8485 67.9629 27.6641 68.09 27.5239C68.2172 27.3838 68.3942 27.2991 68.5831 27.288C68.6751 27.2781 68.7682 27.2867 68.8569 27.3134C68.9455 27.3402 69.0278 27.3845 69.099 27.4436C69.1702 27.5028 69.2287 27.5757 69.2712 27.658C69.3136 27.7402 69.3391 27.8302 69.3461 27.9225Z" fill="#263238"/>
<path d="M64.7255 32.5941C64.7255 32.5352 65.3465 32.412 66.3612 32.2567C66.6289 32.2246 66.8618 32.1684 66.8966 31.989C66.9115 31.7222 66.8452 31.4571 66.7065 31.2287L65.9034 29.2825C64.7763 26.509 63.9518 24.2281 64.0642 24.1826C64.1767 24.1371 65.1806 26.3484 66.3103 29.1218C66.578 29.8072 66.8457 30.4604 67.0893 31.0815C67.1938 31.3733 67.3571 31.7026 67.2473 32.0908C67.2123 32.1828 67.1568 32.2657 67.0849 32.333C67.0129 32.4003 66.9266 32.4502 66.8323 32.4789C66.6907 32.5222 66.544 32.5465 66.396 32.5512C65.3653 32.6315 64.7308 32.6503 64.7255 32.5941Z" fill="#263238"/>
<path d="M60.0968 22.5174C60.0165 22.7851 59.1223 22.6754 58.081 22.8306C57.0396 22.9859 56.207 23.3018 56.0544 23.0796C55.9901 22.9752 56.132 22.7343 56.4667 22.4826C56.9093 22.171 57.421 21.9717 57.9578 21.9017C58.4917 21.8214 59.0371 21.8748 59.5453 22.0569C59.9335 22.2069 60.1316 22.3996 60.0968 22.5174Z" fill="#455A64"/>
<path d="M70.9605 22.2042C70.8641 22.413 69.9914 22.2765 68.9526 22.3461C67.9139 22.4157 67.0787 22.6299 66.9421 22.4344C66.8832 22.3407 67.0385 22.1453 67.3839 21.9552C67.8498 21.7126 68.3635 21.5755 68.8884 21.5537C69.4169 21.5183 69.9469 21.5949 70.4438 21.7785C70.8186 21.9284 71.0006 22.1051 70.9605 22.2042Z" fill="#455A64"/>
<path d="M50.2556 28.905C50.1404 28.8595 45.7045 27.6789 45.9561 32.1711C46.2078 36.6633 50.6678 35.4853 50.6678 35.3541C50.6678 35.223 50.2556 28.905 50.2556 28.905Z" fill="#FFD5BE"/>
<path d="M49.2008 33.7291C49.1794 33.7291 49.1259 33.7907 48.9974 33.8576C48.8153 33.9485 48.605 33.9649 48.4111 33.9032C47.9265 33.7559 47.4848 33.0251 47.4179 32.2166C47.3848 31.8314 47.4379 31.4437 47.5731 31.0815C47.608 30.9391 47.6765 30.8071 47.7729 30.6967C47.8693 30.5863 47.9909 30.5007 48.1273 30.447C48.2165 30.4192 48.3125 30.4229 48.3993 30.4575C48.4861 30.4921 48.5583 30.5555 48.6038 30.6371C48.6708 30.7602 48.6467 30.8513 48.6708 30.8566C48.6949 30.862 48.7618 30.7763 48.7163 30.5889C48.6839 30.4805 48.616 30.3862 48.5235 30.3212C48.395 30.2339 48.2371 30.2011 48.0845 30.2302C47.9017 30.277 47.734 30.3701 47.5976 30.5004C47.4612 30.6307 47.3606 30.794 47.3054 30.9744C47.1388 31.3763 47.0726 31.8128 47.1127 32.246C47.193 33.1509 47.7043 33.9728 48.3656 34.12C48.4877 34.148 48.6145 34.1484 48.7368 34.121C48.8591 34.0937 48.9737 34.0394 49.0723 33.9621C49.1981 33.8523 49.2169 33.7372 49.2008 33.7291Z" fill="#FFB194"/>
<path d="M72.0714 15.3642C71.453 14.0872 70.3848 13.0779 69.231 12.2507C66.7441 10.4296 63.7466 9.43851 60.6643 9.41831C57.6043 9.44776 54.5337 10.6177 52.3652 12.7861C50.6559 14.5629 49.5062 16.8026 49.059 19.2272C48.6188 21.6437 48.6643 24.1237 49.1929 26.5224C49.407 27.5771 49.7283 28.6641 50.4832 29.427C50.9597 29.9009 51.7629 30.2007 52.2849 29.7777C52.5928 29.5288 52.6972 29.1138 52.7855 28.7283C53.5646 25.2481 54.3275 21.484 52.9756 18.1725C53.7742 17.0011 54.8048 16.0061 56.0034 15.2491C57.2242 14.5369 58.7153 14.2077 60.0753 14.5905C62.0965 15.1607 63.3789 17.0802 65.0119 18.3973C67.3463 20.2713 69.1186 21.3823 71.9965 20.539L72.0714 15.3642Z" fill="#455A64"/>
<path d="M63.9785 35.7959C64.016 35.6781 63.1138 35.5014 62.4151 34.7384C62.1228 34.403 61.8761 34.0303 61.6816 33.6301C61.5209 33.3169 61.4005 33.1241 61.355 33.1429C61.3095 33.1616 61.355 33.3811 61.4487 33.7265C61.5894 34.1904 61.8297 34.618 62.1527 34.9794C62.4857 35.3408 62.9103 35.6054 63.3815 35.745C63.7322 35.8494 63.9785 35.836 63.9785 35.7959Z" fill="#263238"/>
<path d="M71.8224 15.0215C57.4035 6.12279 48.2424 18.2073 48.2424 18.2073C47.8435 19.8644 47.4794 22.1962 49.1981 26.8329C58.2468 16.4511 72.1624 21.8696 72.1624 21.8696L71.8224 15.0215Z" fill="#263238"/>
<path d="M49.2545 27.0979C49.1176 26.8408 49.0039 26.5721 48.9145 26.2948C48.6736 25.6332 48.4707 24.9584 48.3068 24.2736C48.1412 23.588 48.0275 22.8909 47.9668 22.1881C47.9454 21.9204 47.9347 21.7009 47.9347 21.5483C47.9241 21.4701 47.9241 21.3909 47.9347 21.3127C47.9907 21.5984 48.0301 21.8871 48.0525 22.1774C48.142 22.8714 48.2671 23.5603 48.4273 24.2415C48.6174 25.0446 48.8342 25.7487 48.9949 26.2627C49.1007 26.5347 49.1875 26.8138 49.2545 27.0979Z" fill="#455A64"/>
<path d="M48.4887 16.5662C47.7935 17.668 47.3257 18.8977 47.1127 20.183C47.0538 20.5417 47.0351 20.9647 47.3081 21.2056C47.7044 21.5563 48.3469 21.2056 48.6306 20.7612C48.9144 20.3168 49.0697 19.7546 49.5007 19.4468C49.0616 19.9501 49.4231 20.8415 50.0602 21.053C50.6974 21.2645 51.4121 20.9433 51.8539 20.44C52.2617 19.9053 52.561 19.296 52.7346 18.6463C52.491 19.005 52.8069 19.5458 53.2326 19.6208C53.4471 19.6375 53.662 19.5924 53.8518 19.4909C54.0415 19.3894 54.1983 19.2356 54.3034 19.0479C54.5105 18.6671 54.6457 18.2515 54.7023 17.8218C54.9459 16.6197 55.2725 15.4124 55.9204 14.3736C56.5683 13.3349 57.7756 12.1784 58.9777 11.9455C57.002 11.1424 54.5096 11.4636 52.5526 12.3123C50.5783 13.1835 49.0308 14.8032 48.2505 16.8152" fill="#455A64"/>
<path d="M61.4835 17.9449C61.6381 17.693 61.8274 17.4641 62.0457 17.2649C62.2693 17.0626 62.5316 16.9078 62.8167 16.8098C63.0478 16.736 63.289 16.699 63.5315 16.7001C63.6615 16.7005 63.7913 16.7112 63.9197 16.7322L63.8929 16.4082H63.8072C63.6573 16.4082 63.4405 16.3654 63.1781 16.3467C63.0364 16.3386 62.8942 16.3386 62.7525 16.3467C62.5924 16.3543 62.4336 16.3785 62.2786 16.419C62.1115 16.4644 61.9519 16.5339 61.8048 16.6251C61.6467 16.7284 61.5012 16.8497 61.3711 16.9865C61.3015 17.0561 61.2345 17.1284 61.1703 17.2033C61.106 17.2756 61.0471 17.3506 60.9856 17.4255C60.8678 17.5755 60.7634 17.7254 60.6643 17.8699C60.4662 18.1591 60.3029 18.4348 60.1637 18.6731L60.0486 18.8658L61.0846 18.7828C61.1087 18.7239 61.1328 18.6597 61.1623 18.5901C61.252 18.3668 61.3594 18.1511 61.4835 17.9449Z" fill="#FF725E"/>
<path d="M59.9628 14.7832C59.845 14.9225 59.7459 15.067 59.6496 15.2035C59.5532 15.3401 59.4648 15.4713 59.3819 15.5891L59.2319 15.7979L59.2935 16.5689L59.4086 16.3788C59.4996 16.2289 59.5987 16.0683 59.7165 15.905C59.8393 15.7291 59.9782 15.5651 60.1314 15.415C60.1716 15.3749 60.2171 15.3401 60.2599 15.2999L60.3295 15.2464L60.3992 15.1955C60.4966 15.1242 60.6005 15.0624 60.7097 15.0108C60.9204 14.9098 61.1437 14.8378 61.3736 14.7966C61.5836 14.7565 61.797 14.7368 62.0108 14.7377C62.3711 14.7377 62.7303 14.7781 63.0816 14.8582C63.3141 14.9094 63.543 14.9755 63.767 15.0563H63.7884L63.7375 14.4272C63.7375 14.4272 63.7375 14.4272 63.7375 14.4058L63.6679 14.3897C63.5126 14.3496 63.2931 14.2799 63.02 14.205C62.7832 14.1388 62.5427 14.0861 62.2999 14.047L60.7873 14.1702C60.6407 14.2275 60.5014 14.3021 60.3724 14.3924C60.2174 14.5019 60.0794 14.6336 59.9628 14.7832Z" fill="#FF725E"/>
<path d="M60.7928 15.9157C60.8926 15.8544 60.9963 15.7999 61.1033 15.7524C61.2077 15.7061 61.315 15.6667 61.4246 15.6346C61.6291 15.5763 61.839 15.5386 62.051 15.5221C62.4097 15.4967 62.7702 15.522 63.1219 15.5971C63.3536 15.6443 63.581 15.7106 63.8019 15.7952L63.8527 15.8166L63.8019 15.1795H63.7403C63.577 15.1554 63.3387 15.1152 63.0469 15.0777C62.7101 15.0296 62.3697 15.0108 62.0296 15.0215C61.8318 15.0291 61.6348 15.0524 61.4406 15.0911C61.2352 15.1328 61.0357 15.1993 60.8463 15.2892C60.7524 15.3334 60.6628 15.3863 60.5786 15.4472L60.5144 15.4927L60.4555 15.5382L60.3404 15.6372C60.1963 15.7733 60.0638 15.921 59.9441 16.079C59.8263 16.2289 59.7219 16.3842 59.6229 16.526C59.5238 16.6679 59.4301 16.7937 59.3391 16.9249L59.3953 17.621C59.5252 17.3404 59.6793 17.0717 59.8558 16.8178C60.105 16.4578 60.4236 16.1511 60.7928 15.9157Z" fill="#FF725E"/>
<path d="M62.7605 17.712C62.9086 17.5801 63.0767 17.4726 63.2585 17.3934C63.4056 17.3294 63.5619 17.2888 63.7216 17.273C63.8026 17.2645 63.8842 17.2645 63.9652 17.273L63.9304 16.8634C63.8287 16.8634 63.6975 16.8821 63.5449 16.9035C63.3267 16.929 63.1126 16.9821 62.9078 17.0615C62.6625 17.16 62.4368 17.3014 62.2412 17.4791C62.0401 17.6616 61.8605 17.8663 61.7057 18.0895C61.5585 18.2956 61.438 18.4937 61.3416 18.6597L61.2935 18.74L62.1314 18.6731C62.1314 18.641 62.1528 18.6035 62.1689 18.566C62.2958 18.2383 62.4964 17.9443 62.7552 17.7066L62.7605 17.712Z" fill="#FF725E"/>
<path d="M63.7617 17.4791C63.6273 17.5185 63.4973 17.5714 63.3735 17.637C63.224 17.7197 63.0839 17.8184 62.9559 17.9315C62.7269 18.1473 62.5271 18.3921 62.3616 18.6597L63.5716 18.5606C63.6367 18.5556 63.7002 18.5377 63.7584 18.508C63.8166 18.4783 63.8683 18.4374 63.9106 18.3876C63.9529 18.3379 63.9849 18.2802 64.0049 18.218C64.0248 18.1558 64.0322 18.0903 64.0267 18.0252L63.9759 17.4202C63.9035 17.4361 63.832 17.4558 63.7617 17.4791Z" fill="#FF725E"/>
<path d="M59.2106 15.4766C59.2828 15.3508 59.3605 15.2089 59.4488 15.0724C59.5418 14.9147 59.6428 14.7619 59.7513 14.6146C59.8575 14.4742 59.9786 14.3458 60.1127 14.2318L59.6068 14.2746C59.5416 14.2797 59.4782 14.2976 59.42 14.3272C59.3618 14.3569 59.3101 14.3978 59.2678 14.4476C59.2255 14.4974 59.1935 14.555 59.1735 14.6172C59.1536 14.6794 59.1462 14.7449 59.1517 14.81L59.2079 15.4846L59.2106 15.4766Z" fill="#FF725E"/>
<path d="M63.0762 14.0149C63.2879 14.0931 63.4952 14.1824 63.6973 14.2826C63.6578 14.1851 63.5882 14.1026 63.4987 14.0472C63.4092 13.9919 63.3043 13.9665 63.1994 13.9748L63.02 13.9908L63.0762 14.0149Z" fill="#FF725E"/>
<path d="M59.8504 18.8605C59.8879 18.7721 59.9308 18.6758 59.9816 18.5687C60.1165 18.2788 60.2684 17.9972 60.4367 17.7254C60.6419 17.3854 60.8843 17.0693 61.1596 16.783C61.3069 16.6295 61.4734 16.4954 61.6548 16.3842C61.828 16.2795 62.0169 16.2035 62.2143 16.1593C62.3904 16.1223 62.5699 16.1043 62.7498 16.1057C62.9031 16.1086 63.056 16.122 63.2075 16.1459C63.421 16.181 63.6314 16.2329 63.8367 16.3012L63.8902 16.3199L63.8581 15.9264H63.7671C63.6064 15.8996 63.3735 15.8568 63.0844 15.8246C62.7517 15.7866 62.4158 15.7866 62.0832 15.8246C61.6831 15.865 61.2967 15.992 60.9507 16.1968C60.6096 16.4147 60.3104 16.6922 60.0673 17.016C59.8633 17.2856 59.6799 17.5702 59.5185 17.8673L59.4194 18.0493L59.4516 18.4375C59.4654 18.5409 59.5113 18.6374 59.5829 18.7133C59.6544 18.7891 59.748 18.8406 59.8504 18.8605Z" fill="#FF725E"/>
<path d="M50.8044 48.2578C50.8044 48.2578 57.0957 52.5225 60.857 52.3404C64.6183 52.1584 68.8883 47.8161 68.8883 47.8161L74.1087 53.3443L61.462 73.4869L54.0571 72.0439C54.0571 72.0439 45.4904 53.8905 45.7581 53.6174C46.0258 53.3443 50.8044 48.2578 50.8044 48.2578Z" fill="white"/>
<path d="M61.6279 63.5869L50.5634 47.8161L48.751 49.7436L37.301 56.5836L42.1038 99.3157C42.1038 99.3157 39.1937 101.829 39.3276 102.887C39.4615 103.944 40.3984 105.794 40.3984 105.794L39.3276 109.631H86.6642L87.4674 66.6576L89.5823 52.7741L71.2869 48.4907L69.0649 47.013L61.6279 63.5869Z" fill="#263238"/>
<path d="M87.8342 57.7937C87.8717 57.7937 87.6977 63.3862 87.4407 70.2797C87.1837 77.1733 86.9481 82.7631 86.9053 82.7631C86.8624 82.7631 87.0418 77.1706 87.2961 70.2744C87.5504 63.3781 87.8048 57.7937 87.8342 57.7937Z" fill="#455A64"/>
<path d="M86.9106 96.2691C86.9106 96.2691 86.8731 96.2316 86.8035 96.154C86.7339 96.0763 86.6322 95.9559 86.5037 95.8086L85.3605 94.4701C84.3754 93.2948 82.9672 91.5788 81.2539 89.4371C77.8298 85.1537 73.1984 79.1597 68.1896 72.4616C63.1807 65.7634 58.7206 59.6329 55.5429 55.1674C53.9527 52.9321 52.6811 51.1143 51.8217 49.8427C50.9624 48.571 50.518 47.8482 50.5635 47.8241C50.5701 47.8361 50.5754 47.8486 50.5795 47.8616C50.5954 47.8965 50.6133 47.9305 50.6331 47.9633C50.6866 48.0544 50.7669 48.1855 50.8767 48.3542C51.0962 48.6915 51.4309 49.1841 51.8672 49.8132C52.74 51.0715 54.0223 52.8839 55.6152 55.1085C58.8277 59.5606 63.2797 65.6778 68.294 72.3786C73.3082 79.0794 77.9316 85.0815 81.3235 89.3755C83.0261 91.5172 84.4236 93.2493 85.3954 94.4353L86.5171 95.7979C86.6429 95.9505 86.7393 96.0656 86.8062 96.154C86.8731 96.2423 86.9106 96.2691 86.9106 96.2691Z" fill="#455A64"/>
<path d="M86.7339 101.669C86.7339 101.669 86.6884 101.637 86.6027 101.564L86.2306 101.243L84.8144 99.9983C83.5883 98.9114 81.8134 97.3373 79.6877 95.3187C77.1881 92.9588 74.8274 90.456 72.6175 87.8228C70.1224 84.8539 67.5792 81.4299 64.9957 77.781C62.4123 74.1321 59.9628 70.6625 57.8211 67.4366C56.7503 65.8304 55.757 64.2696 54.8575 62.7999C53.958 61.3301 53.1576 59.9354 52.4669 58.6423C51.3561 56.6113 50.3534 54.5229 49.4632 52.3859C49.1392 51.6337 48.9277 51.034 48.7698 50.6297C48.6948 50.4316 48.6386 50.279 48.5985 50.1693C48.5583 50.0595 48.5422 50.0113 48.5422 50.0113C48.5422 50.0113 48.569 50.0622 48.6118 50.1666L48.7966 50.619C48.9599 51.0179 49.1794 51.6149 49.514 52.3645C50.4216 54.4912 51.4366 56.5704 52.5552 58.5941C53.2486 59.8845 54.0651 61.2712 54.9646 62.7383C55.8641 64.2054 56.86 65.7527 57.9362 67.3643C60.0779 70.5769 62.5542 74.0571 65.1323 77.7141C67.7103 81.371 70.2509 84.7843 72.738 87.7532C74.9395 90.3836 77.2894 92.8863 79.7761 95.2491C81.891 97.2757 83.6579 98.8605 84.8626 99.9608L86.2627 101.224L86.6268 101.556L86.7339 101.669Z" fill="#455A64"/>
<path d="M71.7421 48.6085C71.7375 48.677 71.7277 48.745 71.7127 48.812C71.6823 48.9565 71.6449 49.1493 71.6002 49.3902C71.5039 49.8909 71.3325 50.611 71.121 51.4944C70.9095 52.3779 70.6097 53.4273 70.2536 54.5785C69.8976 55.7296 69.4505 56.9879 68.9499 58.2782C68.4493 59.5686 67.9058 60.7894 67.3918 61.8816C66.8778 62.9739 66.3772 63.935 65.9355 64.7328C65.4937 65.5305 65.1323 66.173 64.8646 66.6067L64.5541 67.1073C64.5198 67.1663 64.4813 67.2226 64.439 67.276C64.4624 67.2113 64.4929 67.1493 64.53 67.0913C64.6023 66.9628 64.6986 66.7941 64.8164 66.58C65.0841 66.1382 65.4268 65.4931 65.8552 64.6899C66.2835 63.8868 66.7707 62.9177 67.2821 61.8281C67.7934 60.7385 68.3154 59.5231 68.8267 58.2301C69.3381 56.937 69.7637 55.6868 70.1359 54.541C70.508 53.3952 70.7998 52.3538 71.03 51.473C71.2602 50.5923 71.4396 49.8668 71.552 49.3795C71.6109 49.1439 71.6564 48.9539 71.6886 48.8093C71.7005 48.7409 71.7184 48.6738 71.7421 48.6085Z" fill="#455A64"/>
<path d="M73.3833 96.5341C73.3126 96.5152 73.2436 96.4901 73.1772 96.4592L72.5909 96.2129L72.1706 96.0335C72.0153 95.9719 71.8413 95.9157 71.6593 95.8488C71.2898 95.7203 70.8776 95.5516 70.401 95.4285L69.6595 95.2116C69.3918 95.1394 69.1241 95.0885 68.8563 95.0216C68.2968 94.8797 67.6838 94.7913 67.0439 94.6869C64.2465 94.2906 61.3999 94.4168 58.6485 95.059C58.0194 95.2197 57.4171 95.3616 56.8736 95.5516C56.6059 95.6427 56.3382 95.7176 56.0705 95.8193L55.353 96.1004C54.8872 96.2664 54.4936 96.4699 54.1349 96.6359C53.9582 96.7189 53.7922 96.7911 53.6423 96.8661L53.2381 97.0829L52.6786 97.3774C52.6141 97.4144 52.547 97.4466 52.4778 97.4738C52.5362 97.4277 52.599 97.3873 52.6652 97.3533L53.214 97.0348L53.6129 96.8072C53.7601 96.7296 53.9261 96.6519 54.1028 96.5663C54.4562 96.4003 54.8524 96.1888 55.3155 96.0308L56.033 95.739C56.2846 95.64 56.555 95.5623 56.8361 95.4713C57.3849 95.2732 57.9873 95.1286 58.6191 94.9627C61.3844 94.3034 64.2498 94.1762 67.0627 94.5879C67.7052 94.6976 68.3209 94.7913 68.8831 94.9386C69.1642 95.0082 69.4399 95.0617 69.6996 95.1394L70.4412 95.3642C70.9177 95.4954 71.33 95.6694 71.6967 95.8033C71.8788 95.8756 72.0528 95.9345 72.2054 96.0014L72.623 96.1941L73.1986 96.4619C73.2615 96.4823 73.3232 96.5064 73.3833 96.5341Z" fill="#455A64"/>
<path d="M89.5716 52.7741C89.5716 52.7741 93.3196 54.4098 95.9164 57.4296C98.5132 60.4494 109.867 70.858 111.323 74.0866C112.779 77.3152 114.447 81.6869 112.988 85.1216C111.529 88.5563 110.595 88.974 105.701 87.9326C100.807 86.8912 86.426 76.8895 86.426 76.8895L87.8261 59.9568L89.5716 52.7741Z" fill="#263238"/>
<path d="M37.3012 56.5836C37.3012 56.5836 33.2079 59.4455 31.449 65.3672C30.2711 69.332 23.9344 86.5726 24.111 88.9606C24.2877 91.3486 24.435 100.044 28.8602 101.99C33.2855 103.936 40.5753 102.303 42.1039 99.313C43.6325 96.3226 37.3012 56.5836 37.3012 56.5836Z" fill="#263238"/>
<path d="M38.1765 85.914C38.0942 85.7784 38.0217 85.637 37.9596 85.4911C37.8954 85.3519 37.8124 85.1832 37.6919 84.9958C37.5714 84.8084 37.4751 84.5835 37.3198 84.3586L37.0869 83.9999C37.0066 83.8741 36.9075 83.7536 36.8192 83.6224C36.6344 83.3547 36.4069 83.1031 36.174 82.8193C35.1293 81.6485 33.8627 80.6967 32.4474 80.019C32.1155 79.8745 31.8076 79.7246 31.5024 79.6228C31.3525 79.5693 31.2079 79.5077 31.0661 79.4649L30.6538 79.3417C30.3861 79.2561 30.1505 79.2132 29.9417 79.1624C29.7652 79.1164 29.5865 79.0798 29.4062 79.0526C29.2486 79.0359 29.0928 79.0054 28.9404 78.9616C29.0991 78.9619 29.2575 78.9744 29.4143 78.9991C29.6004 79.0174 29.7854 79.046 29.9684 79.0847C30.213 79.1264 30.4551 79.1809 30.6939 79.248L31.1116 79.3632C31.2561 79.4033 31.4034 79.4622 31.556 79.5131C31.8638 79.6121 32.1797 79.7594 32.5144 79.9039C33.2304 80.2431 33.9118 80.651 34.549 81.122C35.1765 81.6016 35.7574 82.1394 36.2837 82.7283C36.5167 83.0094 36.7442 83.2637 36.9262 83.5314C37.0173 83.6653 37.1163 83.7991 37.194 83.9142L37.4215 84.2837C37.5526 84.494 37.6724 84.7111 37.7802 84.9342C37.8689 85.0989 37.9476 85.2687 38.0158 85.4429C38.0834 85.5948 38.1371 85.7525 38.1765 85.914Z" fill="#455A64"/>
<path d="M36.7335 65.3672C36.7426 65.396 36.7489 65.4256 36.7523 65.4556C36.7523 65.5225 36.7737 65.6082 36.7898 65.7233C36.8219 65.9642 36.8647 66.3042 36.9209 66.7352C37.028 67.624 37.1886 68.893 37.368 70.4591C37.7375 73.6074 38.23 77.955 38.736 82.7738C39.242 87.5926 39.6596 91.9402 39.9247 95.0885C40.0532 96.668 40.1549 97.945 40.2111 98.8364C40.2379 99.2728 40.2593 99.6128 40.2727 99.8564C40.2727 99.9662 40.2727 100.052 40.2861 100.124C40.2896 100.153 40.2896 100.183 40.2861 100.212C40.2793 100.183 40.2748 100.154 40.2727 100.124C40.2727 100.057 40.2566 99.9689 40.2459 99.8564C40.2245 99.6155 40.195 99.2755 40.1576 98.8418C40.0773 97.9503 39.9648 96.676 39.8256 95.0939C39.5365 91.9402 39.1028 87.5846 38.5968 82.7791C38.0908 77.9737 37.6116 73.6315 37.2716 70.4644C37.1003 68.8957 36.9638 67.624 36.8674 66.7326C36.8219 66.2989 36.7871 65.9589 36.763 65.7179L36.7389 65.4502C36.7347 65.4228 36.7329 65.395 36.7335 65.3672Z" fill="#455A64"/>
<path d="M29.9149 101.669C29.9149 101.669 27.6206 100.697 27.6206 97.2677C27.6206 93.8383 28.5362 92.2695 30.0113 91.0005C32.4796 88.8776 37.3626 88.4332 37.3626 88.4332L40.7224 86.7306L46.3684 93.2065C46.3684 93.2065 42.2751 100.138 39.7292 101.42C37.1832 102.702 31.995 102.769 29.9149 101.669Z" fill="#FFD5BE"/>
<path d="M69.8924 92.6657L27.3799 82.7658L27.6904 81.387L70.1199 90.8961L69.8924 92.6657Z" fill="#E0E0E0"/>
<path d="M34.2893 84.3158C34.2893 84.3158 33.9949 85.4268 35.2799 85.9221C36.5649 86.4173 39.1403 87.0866 39.1403 87.0866L37.8017 88.2137C37.8017 88.2137 38.9529 91.8626 41.2204 92.904C43.4879 93.9454 46.173 93.5304 46.173 93.5304L48.9171 91.4985C48.9171 91.4985 50.4698 92.2748 51.6343 91.619C51.6343 91.619 53.677 92.216 54.8469 91.7876C56.0168 91.3593 58.0888 89.9324 58.0888 89.9324L54.5658 89.0998C54.5658 89.0998 55.0637 85.7936 53.4093 86.155C52.3908 86.4033 51.485 86.9858 50.8366 87.8094C50.8366 87.8094 50.3466 86.8644 49.4284 86.7252C48.5101 86.586 46.7941 87.2606 46.7941 87.2606L40.5324 85.732L34.2893 84.3158Z" fill="#FFD5BE"/>
<path d="M40.8805 94.2639C40.7849 94.2185 40.6951 94.1619 40.6128 94.0953C40.3711 93.9286 40.142 93.7443 39.9275 93.5438C39.6045 93.2457 39.3146 92.9136 39.0628 92.5533C38.7493 92.1105 38.5264 91.6101 38.4069 91.0809C38.3191 90.549 38.3191 90.0064 38.4069 89.4746C38.4629 89.0422 38.5542 88.6151 38.6799 88.1976C38.7668 87.9163 38.8696 87.6401 38.9878 87.3704C39.0253 87.2692 39.0767 87.1737 39.1404 87.0866C39.1618 87.0866 38.9691 87.5123 38.7736 88.2244C38.6554 88.6407 38.5659 89.0647 38.5059 89.4933C38.4298 90.013 38.4352 90.5414 38.522 91.0594C38.6388 91.5704 38.8513 92.0546 39.1484 92.4863C39.3901 92.8428 39.6663 93.1746 39.973 93.4769C40.5111 93.9882 40.8966 94.2425 40.8805 94.2639Z" fill="#FFB194"/>
<path d="M54.0464 89.5522C53.8389 89.7585 53.6141 89.9466 53.3745 90.1144C52.9435 90.441 52.3599 90.9015 51.6772 91.378C51.3528 91.6104 50.9789 91.7643 50.5849 91.8278C50.2625 91.8597 49.937 91.8334 49.6239 91.7501C49.4157 91.6964 49.211 91.6302 49.0108 91.552C48.9351 91.5292 48.863 91.4958 48.7966 91.453C48.7966 91.4289 49.1232 91.5413 49.6453 91.6538C49.9484 91.7206 50.2606 91.7359 50.5689 91.6993C50.9416 91.6329 51.2947 91.4838 51.6022 91.2629C52.2715 90.7944 52.8712 90.3393 53.3156 90.0341C53.5473 89.8561 53.7915 89.6951 54.0464 89.5522Z" fill="#FFB194"/>
<path d="M50.7562 88.302C50.72 88.7998 50.5588 89.2804 50.2877 89.6995C50.0572 90.1423 49.7217 90.522 49.3105 90.8051C49.6194 90.4309 49.9055 90.0384 50.1672 89.6299C50.3899 89.1994 50.5866 88.756 50.7562 88.302Z" fill="#FFB194"/>
<path d="M48.4887 90.9042C48.3646 91.0198 48.2006 91.0831 48.0309 91.0809C47.8289 91.0905 47.627 91.0587 47.4378 90.9873C47.2486 90.916 47.076 90.8066 46.9306 90.6659C46.651 90.3847 46.433 90.0483 46.2908 89.6781C46.2176 89.5324 46.1679 89.3761 46.1436 89.2149C46.2408 89.3441 46.3209 89.4854 46.3818 89.6352C46.5415 89.9792 46.7588 90.2934 47.0243 90.5642C47.2963 90.8223 47.6535 90.9718 48.0282 90.9845C48.1841 90.9739 48.3384 90.9469 48.4887 90.9042Z" fill="#FFB194"/>
<path d="M45.7447 93.4769C45.6759 93.5111 45.6016 93.5329 45.5252 93.5411C45.322 93.5766 45.1153 93.5883 44.9094 93.5759C44.2249 93.5262 43.5635 93.3073 42.9846 92.9388C42.4146 92.5708 41.8929 92.1328 41.4319 91.635C41.228 91.4428 41.0433 91.2312 40.8804 91.0032C41.1012 91.1748 41.3088 91.3627 41.5015 91.5654C41.9762 92.0346 42.4974 92.4544 43.0569 92.8183C43.623 93.1781 44.2641 93.4034 44.9308 93.4769C45.2019 93.4916 45.4736 93.4916 45.7447 93.4769Z" fill="#FFB194"/>
<path d="M40.8215 80.2198C40.9631 80.2272 41.1043 80.1977 41.2311 80.1342C41.2931 80.0995 41.3398 80.0429 41.3621 79.9755C41.3844 79.9081 41.3807 79.8348 41.3516 79.7701C41.2739 79.6416 41.0838 79.6416 40.942 79.6549C41.0814 79.5532 41.2004 79.426 41.2927 79.2802C41.3066 79.2631 41.3166 79.2433 41.3222 79.2221C41.3277 79.2008 41.3286 79.1786 41.3248 79.157C41.3007 79.0874 41.2016 79.0901 41.1347 79.1142C41.0521 79.1407 40.9744 79.1805 40.9045 79.232L40.9339 79.1302C41.0624 78.6671 41.1829 78.1424 40.9339 77.7274C40.685 77.3125 40.1629 77.1599 39.6891 77.0555C38.5468 76.8092 37.3957 76.5968 36.2356 76.4183C35.6279 76.1105 34.7873 76.4183 34.3616 76.9832C34.2262 77.164 34.1155 77.3621 34.0323 77.5722C34.0068 77.5225 33.9713 77.4788 33.9279 77.4437C33.9045 77.4239 33.8773 77.4091 33.8479 77.4004C33.8185 77.3917 33.7876 77.3891 33.7572 77.3929C33.7268 77.3966 33.6974 77.4067 33.6711 77.4223C33.6447 77.438 33.6219 77.4589 33.604 77.4838C33.5451 77.5989 33.6415 77.7328 33.7325 77.8265C33.6759 77.8429 33.6253 77.8757 33.5872 77.9207C33.5491 77.9657 33.5251 78.021 33.5183 78.0796C33.5114 78.1381 33.522 78.1974 33.5487 78.25C33.5754 78.3026 33.6169 78.3462 33.6683 78.3753C33.5764 78.3945 33.4902 78.4348 33.4166 78.4931C33.3803 78.5225 33.3546 78.5631 33.3435 78.6085C33.3323 78.654 33.3364 78.7018 33.355 78.7447C33.4113 78.8411 33.5478 78.8491 33.6576 78.8304L33.7379 78.8063C33.7191 78.9428 33.7031 79.074 33.687 79.2213C33.6254 79.7567 33.505 80.2118 33.4434 80.7526C33.1755 80.753 32.9114 80.8163 32.6724 80.9373C32.6387 80.9504 32.6081 80.9703 32.5824 80.9956C32.5566 81.0209 32.5362 81.0511 32.5225 81.0845C32.4877 81.2157 32.6456 81.3148 32.7902 81.3228C32.9231 81.3061 33.0581 81.3217 33.1837 81.3683C33.0221 81.4885 32.8902 81.6442 32.7982 81.8234C32.7841 81.8445 32.7753 81.8686 32.7725 81.8937C32.7697 81.9189 32.773 81.9444 32.7821 81.968C32.8116 82.0188 32.8812 82.0215 32.9401 82.0162C33.1174 81.9941 33.2886 81.9368 33.4434 81.8475C33.4434 81.8877 33.4434 81.9278 33.4434 81.9653C33.3626 82.0225 33.295 82.0965 33.2453 82.1821C33.173 82.3508 33.3524 82.5409 33.5371 82.5543C33.5762 82.5597 33.6158 82.5597 33.6549 82.5543C33.7639 82.693 33.9018 82.8063 34.0591 82.8862C34.0851 82.9193 34.1168 82.9474 34.1528 82.9692C34.2135 83.002 34.2822 83.0168 34.3509 83.012C34.4875 83.0629 34.6186 83.1031 34.7632 83.1405L38.0239 84.0293C38.4737 84.1525 39.0011 84.2596 39.3625 83.9758C39.6017 83.7476 39.7604 83.4479 39.8149 83.1218C40.0523 82.2544 40.2923 81.3861 40.535 80.517C40.6348 80.5952 40.7414 80.6642 40.8536 80.7231C40.902 80.7512 40.9559 80.7685 41.0116 80.774C41.0398 80.7761 41.0681 80.7699 41.0928 80.7561C41.1176 80.7423 41.1377 80.7215 41.1508 80.6963C41.1584 80.6714 41.1607 80.6452 41.1574 80.6194C41.1542 80.5935 41.1456 80.5687 41.132 80.5464C41.0657 80.4075 40.9569 80.2931 40.8215 80.2198Z" fill="white"/>
<path d="M57.3767 85.9355C57.5784 85.0056 57.7801 84.0749 57.9818 83.1432C58.085 82.7998 58.1505 82.4461 58.1772 82.0885C58.2093 81.5129 57.5213 80.8329 56.8145 80.7499C55.816 80.5491 55.6018 80.6 54.7023 80.2894C53.8028 79.9789 52.7052 79.845 51.9877 80.4688C51.2702 81.0926 51.2461 82.1233 51.0935 83.0388C50.9302 84.0026 50.5903 85.0172 50.9624 85.9194C51.4068 86.9902 52.6623 87.4427 53.7787 87.772C54.713 88.0397 55.8347 88.2913 56.5789 87.6595C57.0742 87.2499 57.2402 86.5699 57.3767 85.9355Z" fill="#455A64"/>
<path d="M55.1975 80.9266C54.7467 80.7329 54.2723 80.5997 53.7867 80.5304C53.2954 80.461 52.7964 80.5848 52.3946 80.8757C51.9154 81.2612 51.736 81.9091 51.6718 82.5195C51.6075 83.1298 51.6289 83.7616 51.4308 84.3452C51.3612 84.4955 51.3247 84.6589 51.3237 84.8245C51.3398 84.9878 51.4844 85.1564 51.6477 85.1243C51.5888 85.2242 51.5551 85.337 51.5493 85.4528C51.5436 85.5687 51.5661 85.6842 51.6147 85.7895C51.6634 85.8948 51.7369 85.9866 51.8289 86.0573C51.9209 86.128 52.0287 86.1752 52.1429 86.1951C52.3732 86.6101 52.7426 86.9983 53.2138 87.0357C53.527 87.0625 53.867 86.9313 54.1454 87.0813C54.2643 87.1616 54.3707 87.2591 54.4613 87.3704C54.5066 87.4253 54.5623 87.4706 54.6253 87.5037C54.6883 87.5368 54.7572 87.557 54.8281 87.5631C54.9726 87.5631 55.1145 87.4213 55.0663 87.2954C55.1538 87.3986 55.2624 87.4817 55.3849 87.539C55.4462 87.5664 55.5147 87.5734 55.5802 87.559C55.6458 87.5445 55.7049 87.5094 55.749 87.4587C55.8293 87.349 55.749 87.1562 55.6258 87.1562C55.754 87.171 55.8838 87.1569 56.0057 87.1147C56.1275 87.0725 56.2384 87.0034 56.3299 86.9126C56.5114 86.728 56.6551 86.5098 56.7529 86.2701C57.1694 85.2658 57.4555 84.2122 57.6042 83.1352C57.6749 82.8676 57.6831 82.5873 57.6283 82.316C57.5967 82.1816 57.5209 82.0617 57.4132 81.9754C57.3055 81.889 57.172 81.8412 57.034 81.8395C57.066 81.8392 57.0976 81.8324 57.1268 81.8193C57.1561 81.8063 57.1823 81.7874 57.2039 81.7638C57.2255 81.7402 57.242 81.7124 57.2524 81.6821C57.2628 81.6518 57.2668 81.6197 57.2642 81.5878C57.2545 81.5203 57.2232 81.4577 57.1749 81.4094C57.1267 81.3612 57.0641 81.3298 56.9965 81.3201C56.8669 81.2988 56.7341 81.3296 56.6271 81.4058C56.6533 81.3897 56.6755 81.3677 56.6918 81.3416C56.7081 81.3155 56.718 81.2859 56.7209 81.2552C56.7238 81.2245 56.7194 81.1936 56.7083 81.1649C56.6971 81.1362 56.6794 81.1105 56.6565 81.0899C56.6049 81.0532 56.5432 81.0335 56.4798 81.0335C56.4165 81.0335 56.3548 81.0532 56.3032 81.0899C56.2009 81.1647 56.1206 81.2654 56.0702 81.3817C56.0283 81.1706 55.9216 80.9779 55.7651 80.8302C55.7251 80.7981 55.6789 80.7748 55.6294 80.7618C55.5799 80.7488 55.5281 80.7464 55.4776 80.7547C55.4271 80.763 55.3789 80.7819 55.3361 80.8102C55.2934 80.8384 55.2571 80.8753 55.2296 80.9186" fill="white"/>
<path d="M56.2604 83.8286C56.2878 83.4323 56.1569 83.0414 55.8963 82.7417C55.6582 82.4966 55.3526 82.3279 55.0183 82.2571C54.9636 82.2445 54.9081 82.2355 54.8523 82.2303C54.5678 82.1764 54.2741 82.1986 54.001 82.2946C53.7572 82.3788 53.5383 82.5223 53.3638 82.7122C53.1358 82.9781 52.9977 83.3093 52.9693 83.6584C52.941 84.0075 53.0237 84.3566 53.2059 84.6558C53.4004 84.9471 53.6804 85.1709 54.0073 85.2965C54.3343 85.4221 54.6921 85.4433 55.0316 85.3572C55.367 85.2565 55.6639 85.0565 55.8832 84.7836C56.1026 84.5107 56.2341 84.1777 56.2604 83.8286Z" fill="#FF725E"/>
<path d="M52.6516 84.9208C52.5905 84.9295 52.5282 84.9238 52.4697 84.9043C52.4112 84.8848 52.358 84.8519 52.3143 84.8084C52.2601 84.7623 52.2169 84.7048 52.1877 84.64C52.1586 84.5752 52.1442 84.5047 52.1456 84.4336C52.1489 84.3429 52.1752 84.2545 52.2221 84.1768C52.2689 84.0991 52.3347 84.0345 52.4133 83.9892C52.4177 83.9869 52.4225 83.9855 52.4275 83.985C52.4324 83.9846 52.4374 83.9851 52.4421 83.9866C52.4468 83.9881 52.4512 83.9905 52.455 83.9937C52.4588 83.9969 52.4619 84.0008 52.4642 84.0053C52.4691 84.0138 52.4704 84.0239 52.4679 84.0334C52.4654 84.043 52.4593 84.0511 52.4508 84.0561C52.417 84.0734 52.3801 84.0837 52.3422 84.0864C52.3043 84.0892 52.2663 84.0843 52.2303 84.0721C52.1944 84.0598 52.1612 84.0405 52.1329 84.0152C52.1046 83.99 52.0816 83.9593 52.0653 83.925C52.0354 83.8546 52.0241 83.7778 52.0325 83.7018C52.0409 83.6258 52.0688 83.5533 52.1135 83.4913C52.1878 83.3844 52.2781 83.2896 52.3812 83.2102L52.4026 83.2824C52.3551 83.2772 52.3093 83.2617 52.2684 83.2372C52.2274 83.2126 52.1922 83.1795 52.1652 83.14C52.1382 83.1006 52.1201 83.0558 52.112 83.0087C52.1039 82.9617 52.106 82.9134 52.1183 82.8672C52.1306 82.821 52.1527 82.7781 52.1831 82.7412C52.2135 82.7044 52.2515 82.6745 52.2945 82.6537C52.3375 82.6329 52.3845 82.6216 52.4323 82.6206C52.48 82.6196 52.5275 82.6289 52.5713 82.648C52.5751 82.6494 52.5785 82.6516 52.5814 82.6545C52.5843 82.6573 52.5866 82.6608 52.5881 82.6645C52.5896 82.6683 52.5903 82.6723 52.5902 82.6764C52.5901 82.6805 52.5891 82.6845 52.5873 82.6881C52.5844 82.6951 52.5788 82.7007 52.5718 82.7037C52.5648 82.7067 52.557 82.7069 52.5499 82.7042C52.4982 82.6904 52.4511 82.6634 52.4131 82.6258C52.3751 82.5883 52.3475 82.5415 52.333 82.49C52.3227 82.45 52.3258 82.4076 52.3417 82.3695C52.3577 82.3313 52.3856 82.2994 52.4214 82.2785C52.5418 82.2062 52.6168 82.2785 52.6061 82.2785C52.5789 82.2669 52.549 82.2629 52.5197 82.2672C52.4904 82.2714 52.4629 82.2837 52.4401 82.3026C52.4136 82.3214 52.3936 82.3481 52.3831 82.3788C52.3725 82.4095 52.3719 82.4428 52.3812 82.474C52.3963 82.5145 52.421 82.5508 52.4532 82.5797C52.4853 82.6086 52.524 82.6292 52.5659 82.6399L52.5472 82.6988C52.4831 82.6764 52.4129 82.6791 52.3508 82.7064C52.2887 82.7338 52.2393 82.7837 52.2125 82.8461C52.2004 82.8821 52.1961 82.9203 52.1998 82.9581C52.2036 82.9959 52.2153 83.0325 52.2343 83.0654C52.2533 83.0984 52.2791 83.1269 52.31 83.149C52.3408 83.1712 52.3761 83.1866 52.4133 83.1941C52.4237 83.196 52.433 83.2018 52.4395 83.2102C52.4459 83.2186 52.449 83.2291 52.4481 83.2396C52.4461 83.2502 52.4404 83.2596 52.4321 83.2664C52.3293 83.341 52.239 83.4313 52.1644 83.5341C52.1274 83.5842 52.1036 83.6429 52.0952 83.7046C52.0868 83.7664 52.094 83.8292 52.1162 83.8875C52.1404 83.9344 52.1813 83.9706 52.2308 83.989C52.2803 84.0073 52.3349 84.0064 52.3839 83.9865L52.4214 84.0561C52.3538 84.0973 52.2979 84.1551 52.259 84.224C52.2201 84.2928 52.1995 84.3706 52.1992 84.4497C52.1961 84.5124 52.2068 84.5751 52.2303 84.6333C52.2539 84.6916 52.2899 84.744 52.3357 84.787C52.4259 84.861 52.5356 84.9075 52.6516 84.9208Z" fill="#263238"/>
<path d="M56.686 83.4698C56.686 83.4698 56.686 83.4913 56.7208 83.4993C56.7302 83.503 56.7404 83.5047 56.7505 83.5043C56.7607 83.5039 56.7706 83.5013 56.7797 83.4967C56.7888 83.4922 56.7969 83.4858 56.8033 83.4779C56.8098 83.47 56.8145 83.4609 56.8171 83.4511C56.8298 83.3785 56.8298 83.3042 56.8171 83.2316C56.8184 83.1402 56.786 83.0516 56.7261 82.9826C56.7188 82.9751 56.7146 82.965 56.7146 82.9545C56.7146 82.944 56.7188 82.9339 56.7261 82.9264C56.7321 82.9226 56.7391 82.9206 56.7462 82.9206C56.7533 82.9206 56.7603 82.9226 56.7663 82.9264C56.819 82.9513 56.879 82.9561 56.9349 82.9398C56.9778 82.921 56.9831 82.8568 56.951 82.8059C56.9189 82.755 56.7877 82.7229 56.6833 82.7203C56.6726 82.7203 56.6624 82.716 56.6549 82.7085C56.6474 82.701 56.6431 82.6907 56.6431 82.6801C56.6435 82.6743 56.6452 82.6687 56.6479 82.6636C56.6507 82.6585 56.6546 82.6541 56.6592 82.6506C56.7434 82.5842 56.8173 82.5057 56.8787 82.4177C56.8948 82.3883 56.8787 82.3722 56.8359 82.3642C56.7986 82.3588 56.7607 82.3588 56.7234 82.3642C56.6496 82.3884 56.578 82.4189 56.5093 82.4552C56.5093 82.4552 56.5575 82.3669 56.7101 82.316C56.7522 82.3011 56.7966 82.2939 56.8412 82.2946C56.8717 82.2957 56.9009 82.307 56.9242 82.3267C56.9377 82.3407 56.9464 82.3585 56.9493 82.3777C56.9522 82.3969 56.949 82.4165 56.9403 82.4338C56.8812 82.5368 56.8031 82.6277 56.7101 82.7015L56.686 82.6292C56.7461 82.6216 56.8071 82.6286 56.864 82.6496C56.9208 82.6705 56.9718 82.7049 57.0126 82.7497C57.0388 82.7892 57.0511 82.8363 57.0474 82.8836C57.0448 82.9086 57.0358 82.9327 57.0213 82.9533C57.0067 82.9739 56.9872 82.9905 56.9644 83.0013C56.9268 83.0156 56.8866 83.0217 56.8465 83.0194C56.8064 83.0171 56.7672 83.0064 56.7315 82.988L56.7716 82.9237C56.8428 83.007 56.8801 83.114 56.876 83.2235C56.8816 83.3057 56.8725 83.3882 56.8493 83.4672C56.8419 83.4837 56.8309 83.4984 56.8169 83.51C56.803 83.5216 56.7866 83.5299 56.769 83.5341C56.7457 83.5429 56.72 83.5429 56.6967 83.5341C56.6726 83.4966 56.6833 83.4645 56.686 83.4698Z" fill="#263238"/>
<path d="M51.4657 84.0454C51.4657 84.0829 51.3051 84.1445 51.1391 84.2756C50.9731 84.4068 50.8714 84.5434 50.8312 84.5434C50.791 84.5434 50.8553 84.3265 51.0534 84.1766C51.2515 84.0267 51.4603 84.0079 51.4657 84.0454Z" fill="#263238"/>
<path d="M52.5875 80.6856C52.5473 80.6856 52.5366 80.5678 52.4857 80.4527C52.4349 80.3376 52.3679 80.2519 52.392 80.2171C52.4161 80.1823 52.5473 80.2412 52.6142 80.3992C52.6812 80.5571 52.6249 80.7017 52.5875 80.6856Z" fill="#263238"/>
<path d="M54.3945 80.7445C54.3597 80.7258 54.3945 80.608 54.3517 80.4768C54.3089 80.3457 54.2526 80.2439 54.2794 80.2091C54.3062 80.1743 54.4481 80.2573 54.4882 80.4447C54.5284 80.6321 54.4267 80.766 54.3945 80.7445Z" fill="#263238"/>
<path d="M57.8775 81.6628C57.9043 81.6922 57.8132 81.81 57.6473 81.8663C57.4813 81.9225 57.3367 81.8903 57.3394 81.8529C57.3421 81.8154 57.4625 81.7859 57.6071 81.7351C57.7517 81.6842 57.8534 81.6333 57.8775 81.6628Z" fill="#263238"/>
<path d="M57.805 84.0909C57.805 84.1284 57.7327 84.1686 57.6364 84.1471C57.54 84.1257 57.4864 84.0508 57.5079 84.0213C57.5293 83.9919 57.5989 83.9946 57.6685 84.0213C57.7381 84.0481 57.7997 84.0508 57.805 84.0909Z" fill="#263238"/>
<path d="M56.9352 86.7948C56.895 86.7948 56.895 86.6529 56.8334 86.511C56.7719 86.3692 56.6835 86.2674 56.7049 86.2433C56.7264 86.2192 56.887 86.2754 56.9726 86.4655C57.0583 86.6556 56.97 86.8082 56.9352 86.7948Z" fill="#263238"/>
<path d="M55.9096 87.9058C55.8802 87.879 56.0167 87.7023 56.0596 87.4427C56.1024 87.183 56.0408 86.9742 56.0783 86.9581C56.1158 86.942 56.2523 87.1616 56.1988 87.4668C56.1452 87.772 55.9311 87.9299 55.9096 87.9058Z" fill="#263238"/>
<path d="M53.5004 87.4828C53.471 87.4587 53.5004 87.3731 53.5219 87.274C53.5433 87.1749 53.5433 87.0813 53.5808 87.0679C53.6182 87.0545 53.6852 87.1589 53.6584 87.2981C53.6316 87.4373 53.5379 87.5096 53.5004 87.4828Z" fill="#263238"/>
<path d="M51.9127 86.9501C51.8779 86.9635 51.8003 86.7841 51.8726 86.5673C51.9448 86.3504 52.1108 86.2487 52.1403 86.2808C52.1697 86.3129 52.068 86.4334 52.0118 86.6101C51.9555 86.7868 51.9529 86.942 51.9127 86.9501Z" fill="#263238"/>
<path d="M43.1639 83.9303C43.1116 83.911 43.0548 83.9072 43.0004 83.9194C42.9459 83.9317 42.8962 83.9594 42.8572 83.9993C42.8182 84.0391 42.7915 84.0894 42.7804 84.1441C42.7693 84.1987 42.7743 84.2555 42.7947 84.3074C42.8151 84.3593 42.8501 84.4042 42.8955 84.4366C42.9409 84.4691 42.9946 84.4878 43.0504 84.4904C43.1061 84.4929 43.1614 84.4794 43.2095 84.4512C43.2577 84.4231 43.2967 84.3817 43.3219 84.3319C43.2844 84.4607 43.2798 84.597 43.3085 84.7281C43.3232 84.7921 43.3565 84.8503 43.4041 84.8955C43.4517 84.9407 43.5115 84.9709 43.5762 84.9824C43.609 84.9845 43.6419 84.9792 43.6723 84.9667C43.7027 84.9543 43.7299 84.9351 43.7519 84.9106C43.7738 84.8861 43.7898 84.8569 43.7988 84.8253C43.8078 84.7937 43.8095 84.7604 43.8038 84.7281C43.8022 84.7668 43.8082 84.8054 43.8216 84.8417C43.8349 84.878 43.8553 84.9114 43.8815 84.9398C43.9077 84.9683 43.9393 84.9913 43.9744 85.0076C44.0095 85.0238 44.0475 85.033 44.0862 85.0346C44.1643 85.0378 44.2405 85.0098 44.2979 84.9569C44.3264 84.9306 44.3494 84.8991 44.3657 84.8639C44.3819 84.8288 44.3911 84.7908 44.3927 84.7522C44.4298 84.9271 44.5322 85.0813 44.6792 85.1832C44.8371 85.2635 45.0861 85.1404 45.0406 84.969C45.0227 85.046 45.033 85.1268 45.0694 85.197C45.1058 85.2671 45.166 85.3219 45.2393 85.3516C45.3125 85.3813 45.3939 85.3839 45.4689 85.3589C45.5439 85.3339 45.6075 85.283 45.6483 85.2153C45.7219 85.3691 45.8442 85.4943 45.9963 85.5714C46.1543 85.6303 46.3765 85.5259 46.3657 85.3572C46.4434 85.4964 46.5398 85.649 46.695 85.6838C46.8503 85.7186 47.0323 85.5232 46.9253 85.4161C47.0461 85.5337 47.1985 85.6135 47.364 85.6459C47.5294 85.6782 47.7007 85.6616 47.8569 85.5981C47.9424 85.6732 48.0391 85.7346 48.1433 85.7802C48.1959 85.8022 48.255 85.8024 48.3077 85.7808C48.3604 85.7593 48.4024 85.7176 48.4244 85.6651C48.4465 85.6125 48.4467 85.5534 48.4251 85.5007C48.4035 85.448 48.3619 85.406 48.3093 85.384L47.7739 85.135" fill="white"/>
<path d="M46.845 78.4021C46.276 78.0681 45.6494 77.8438 44.9978 77.7408C44.3419 77.6793 43.6137 77.9148 43.2764 78.4797C43.1121 78.8136 43.0209 79.1786 43.0087 79.5506C42.9069 80.4536 42.8061 81.354 42.7062 82.2518C42.6197 82.6747 42.6493 83.1132 42.7918 83.5207C43.0595 84.1231 43.7583 84.3854 44.3981 84.5915C45.2601 84.8575 46.1293 85.0993 47.0056 85.317C47.3964 85.4161 47.8301 85.5044 48.1889 85.317C48.644 85.0841 48.7912 84.5139 48.8903 84.0106C49.0563 83.1673 49.2115 82.324 49.3614 81.4781C49.4578 80.9426 49.5488 80.3644 49.34 79.8557C49.0937 79.2507 48.478 78.8786 47.8623 78.6537C47.2465 78.4288 46.5906 78.3111 46.0177 77.9925" fill="#455A64"/>
<path d="M49.8353 78.0407L49.8138 78.0219C49.564 77.797 49.288 77.6029 48.992 77.4437C47.2545 76.5281 45.1102 76.1667 43.6618 76.5602C42.6365 76.8279 41.389 77.9496 41.7879 78.9857C41.8162 79.0664 41.8651 79.1384 41.9298 79.1945C42.0715 79.2821 42.2362 79.3254 42.4027 79.3187C42.5691 79.3121 42.7298 79.2557 42.8641 79.157C43.1478 78.9803 43.37 78.7206 43.6458 78.5332C44.1618 78.2188 44.7765 78.1081 45.3698 78.2227C45.958 78.336 46.5293 78.5241 47.0698 78.7822C47.9533 79.157 48.8715 79.5532 49.5087 80.276C49.8353 80.6482 50.1512 81.1381 50.6464 81.1568C50.8368 81.1497 51.02 81.0824 51.1696 80.9645C51.3192 80.8466 51.4276 80.6843 51.479 80.5009C51.5299 80.343 51.4014 80.0565 51.23 79.7567C50.8612 79.1128 50.3902 78.5333 49.8353 78.0407Z" fill="#FF725E"/>
<path d="M49.4685 80.8249C49.4017 80.8871 49.327 80.9402 49.2463 80.9828C49.0358 81.1159 48.8177 81.2366 48.5931 81.3442C47.1104 82.0717 45.4622 82.3958 43.8144 82.2839C43.5657 82.2697 43.318 82.2402 43.0729 82.1955C42.981 82.1887 42.8908 82.168 42.8052 82.134C42.8052 82.1099 43.1934 82.1661 43.8144 82.1848C45.4434 82.2419 47.0636 81.9241 48.5503 81.2559C49.1205 81.0015 49.4578 80.8034 49.4685 80.8249Z" fill="#263238"/>
<path d="M49.0698 83.2878C48.9984 83.3339 48.9209 83.37 48.8396 83.3949C48.6258 83.4785 48.4077 83.5509 48.1864 83.6117C47.4563 83.8162 46.7036 83.9286 45.9456 83.9464C45.1871 83.965 44.4291 83.8904 43.6888 83.7242C43.4051 83.6572 43.1802 83.593 43.0249 83.5394C42.9433 83.5178 42.865 83.4854 42.792 83.4431C42.792 83.4216 43.1427 83.5207 43.7076 83.6251C44.4435 83.7628 45.1917 83.8238 45.9403 83.8072C46.6891 83.7881 47.4339 83.6903 48.1623 83.5153C48.7191 83.3788 49.0618 83.2664 49.0698 83.2878Z" fill="#263238"/>
<path d="M48.031 79.1383C47.8449 79.3114 47.6359 79.4583 47.4099 79.5746C46.8775 79.879 46.3103 80.1181 45.7206 80.2868C45.1276 80.4547 44.5162 80.5491 43.9002 80.5679C43.647 80.5889 43.3921 80.5754 43.1426 80.5277C43.392 80.4939 43.6432 80.4751 43.8948 80.4715C44.4971 80.4225 45.0933 80.3158 45.6751 80.1529C46.255 79.9858 46.8172 79.7625 47.3537 79.4863C47.5733 79.3588 47.7994 79.2426 48.031 79.1383Z" fill="#263238"/>
<path d="M43.7958 78.3914C43.7958 78.4101 43.686 78.4395 43.5013 78.4155C43.26 78.3808 43.0348 78.2741 42.8552 78.1093C42.6756 77.9445 42.5499 77.7293 42.4947 77.4919C42.4545 77.3125 42.476 77.1974 42.4947 77.1974C42.557 77.5091 42.717 77.7928 42.9514 78.0075C43.1858 78.2221 43.4825 78.3566 43.7984 78.3914H43.7958Z" fill="white"/>
<path d="M44.773 76.4183C44.7864 76.4344 44.7141 76.5147 44.6338 76.662C44.5306 76.8554 44.4669 77.0674 44.4464 77.2857C44.4306 77.5085 44.4306 77.7322 44.4464 77.955C44.4464 78.129 44.4464 78.2388 44.4464 78.2414C44.4464 78.2441 44.3929 78.1397 44.3608 77.9737C44.3146 77.7448 44.302 77.5103 44.3233 77.2777C44.3447 77.0396 44.4288 76.8115 44.5669 76.6164C44.6606 76.4638 44.7623 76.4183 44.773 76.4183Z" fill="white"/>
<path d="M47.134 76.7797C46.9086 77 46.6992 77.2362 46.5076 77.4865C46.3533 77.7624 46.2182 78.0486 46.1034 78.3432C46.0842 78.0075 46.1859 77.6761 46.3898 77.4089C46.5538 77.1162 46.8181 76.8927 47.134 76.7797Z" fill="white"/>
<path d="M49.2544 77.6873C49.1509 78.029 48.9566 78.3361 48.6922 78.5761C48.4619 78.8481 48.1635 79.0541 47.8275 79.1731C47.8061 79.1383 48.1996 78.8893 48.5905 78.4797C48.9813 78.0701 49.2249 77.6685 49.2544 77.6873Z" fill="white"/>
<path d="M50.8607 79.323C50.8768 79.323 50.8607 79.4301 50.7483 79.5666C50.6196 79.7433 50.4495 79.8858 50.253 79.9816C50.0578 80.0795 49.8423 80.1299 49.6239 80.1288C49.4579 80.1288 49.3562 80.0913 49.3562 80.0726C49.6441 80.0586 49.9258 79.9847 50.1835 79.8556C50.4412 79.7265 50.6691 79.5451 50.8527 79.323H50.8607Z" fill="white"/>
<g opacity="0.3">
<path d="M44.1466 77.9711C44.7329 77.8051 46.5212 77.9416 48.3684 78.9562C50.2156 79.9709 50.66 81.1568 50.66 81.1568C50.1648 81.1381 49.8569 80.6482 49.5223 80.2761C48.8851 79.5532 47.9669 79.157 47.0834 78.7822C46.5429 78.5241 45.9716 78.3361 45.3834 78.2227C44.7901 78.1081 44.1754 78.2188 43.6594 78.5333C43.3917 78.7207 43.1614 78.9803 42.8777 79.157C42.7434 79.2558 42.5827 79.3121 42.4162 79.3188C42.2498 79.3254 42.0851 79.2822 41.9434 79.1945C41.9434 79.1945 42.6153 78.3967 44.1466 77.9711Z" fill="black"/>
</g>
<path d="M43.6539 78.5948C43.4745 78.7795 43.686 79.1169 43.9403 79.1436C44.1993 79.1366 44.4465 79.0336 44.6337 78.8545C44.6183 78.9665 44.6446 79.0801 44.7076 79.1739C44.7706 79.2678 44.8659 79.3351 44.9753 79.3632C45.0848 79.3913 45.2007 79.3782 45.3011 79.3264C45.4015 79.2745 45.4794 79.1876 45.5198 79.0821C45.6111 79.2948 45.7727 79.4696 45.9776 79.5773C46.1891 79.663 46.4943 79.5318 46.4889 79.3096C46.5952 79.4803 46.7473 79.6176 46.928 79.7058C46.9733 79.7263 47.0224 79.7374 47.0721 79.7383C47.1219 79.7392 47.1713 79.73 47.2174 79.7112C47.2635 79.6924 47.3053 79.6645 47.3402 79.629C47.3751 79.5936 47.4025 79.5514 47.4206 79.505C47.4531 79.5934 47.5059 79.6728 47.5749 79.7369C47.6438 79.801 47.7268 79.848 47.8173 79.8741C47.9077 79.9002 48.003 79.9046 48.0955 79.887C48.188 79.8694 48.275 79.8302 48.3495 79.7728C48.4176 79.9296 48.5327 80.0615 48.6788 80.1502C48.8341 80.2198 49.0616 80.1502 49.0804 79.9762C49.0991 79.8022 48.9867 79.7433 48.8876 79.6603C47.6398 78.6413 46.0675 78.1045 44.457 78.1477C44.2727 78.1345 44.0877 78.1595 43.9135 78.2212C43.7393 78.2829 43.5798 78.3801 43.4451 78.5065" fill="white"/>
<path d="M60.0299 88.0504C59.9776 88.0311 59.9208 88.0273 59.8663 88.0395C59.8119 88.0518 59.7622 88.0795 59.7232 88.1193C59.6841 88.1592 59.6575 88.2095 59.6464 88.2641C59.6353 88.3188 59.6403 88.3755 59.6607 88.4274C59.6811 88.4794 59.7161 88.5242 59.7615 88.5567C59.8068 88.5892 59.8606 88.6078 59.9163 88.6104C59.972 88.613 60.0273 88.5994 60.0755 88.5713C60.1237 88.5432 60.1627 88.5017 60.1878 88.4519C60.1513 88.581 60.1467 88.7169 60.1745 88.8481C60.1895 88.912 60.2229 88.97 60.2704 89.0152C60.318 89.0604 60.3776 89.0907 60.4422 89.1025C60.475 89.1046 60.5078 89.0992 60.5383 89.0868C60.5687 89.0744 60.5959 89.0552 60.6178 89.0307C60.6397 89.0062 60.6558 88.977 60.6648 88.9454C60.6738 88.9138 60.6755 88.8805 60.6697 88.8481C60.6681 88.8868 60.6742 88.9254 60.6875 88.9618C60.7009 88.9981 60.7212 89.0314 60.7475 89.0599C60.7737 89.0884 60.8053 89.1114 60.8404 89.1277C60.8755 89.1439 60.9135 89.1531 60.9522 89.1547C61.0303 89.1579 61.1064 89.1299 61.1639 89.0769C61.1924 89.0507 61.2154 89.0191 61.2317 88.984C61.2479 88.9489 61.2571 88.9109 61.2587 88.8722C61.2957 89.0472 61.3982 89.2014 61.5451 89.3033C61.7031 89.3836 61.9521 89.2604 61.9065 89.0891C61.8887 89.1661 61.8989 89.2469 61.9353 89.317C61.9718 89.3872 62.032 89.442 62.1052 89.4717C62.1785 89.5013 62.2599 89.5039 62.3349 89.479C62.4099 89.454 62.4735 89.4031 62.5142 89.3354C62.5879 89.4892 62.7102 89.6143 62.8623 89.6914C63.0202 89.7503 63.2451 89.6459 63.2317 89.4773C63.3093 89.6165 63.4057 89.7691 63.561 89.8039C63.7163 89.8387 63.8983 89.6433 63.7912 89.5362C63.912 89.6538 64.0645 89.7336 64.2299 89.7659C64.3954 89.7983 64.5667 89.7817 64.7229 89.7182C64.8084 89.7933 64.905 89.8547 65.0093 89.9003C65.0353 89.9111 65.0632 89.9168 65.0914 89.9169C65.1196 89.917 65.1476 89.9116 65.1737 89.9009C65.1998 89.8902 65.2235 89.8745 65.2436 89.8546C65.2636 89.8348 65.2795 89.8112 65.2904 89.7851C65.3013 89.7591 65.307 89.7312 65.3071 89.703C65.3072 89.6748 65.3018 89.6469 65.2911 89.6208C65.2804 89.5946 65.2647 89.5709 65.2448 89.5509C65.2249 89.5309 65.2013 89.5149 65.1753 89.504L64.6399 89.2551" fill="white"/>
<path d="M63.7109 82.5221C63.1419 82.1882 62.5154 81.9639 61.8637 81.8609C61.2078 81.7993 60.4797 82.0349 60.1423 82.5998C59.9781 82.9337 59.8868 83.2987 59.8746 83.6706C59.7729 84.5737 59.6721 85.4741 59.5721 86.3718C59.4857 86.7948 59.5153 87.2333 59.6578 87.6408C59.9255 88.2431 60.6269 88.5055 61.2641 88.6982C62.1261 88.9642 62.9953 89.206 63.8716 89.4237C64.2624 89.5228 64.6961 89.6111 65.0548 89.4237C65.5099 89.1908 65.6599 88.6206 65.7562 88.1173C65.9222 87.2749 66.0802 86.4307 66.2301 85.5848C66.3238 85.0493 66.4148 84.4711 66.206 83.9624C65.9597 83.3574 65.344 82.9853 64.7282 82.7604C64.1125 82.5355 63.4566 82.4177 62.8837 82.0992" fill="#455A64"/>
<path d="M66.7012 82.1607L66.6825 82.142C66.4312 81.9177 66.1545 81.7236 65.8579 81.5637C64.1205 80.6482 61.9788 80.2867 60.5278 80.6803C59.5025 80.948 58.2549 82.0697 58.6538 83.1057C58.6832 83.186 58.732 83.2577 58.7957 83.3146C58.9374 83.4022 59.1021 83.4455 59.2686 83.4388C59.4351 83.4321 59.5958 83.3758 59.73 83.2771C60.0138 83.1004 60.236 82.8407 60.5118 82.6533C61.0278 82.3389 61.6425 82.2281 62.2358 82.3428C62.824 82.4561 63.3953 82.6441 63.9358 82.9023C64.8219 83.2771 65.7375 83.6733 66.3746 84.3961C66.7012 84.7682 67.0171 85.2581 67.5124 85.2769C67.7027 85.2698 67.8859 85.2025 68.0355 85.0846C68.1852 84.9667 68.2935 84.8044 68.345 84.621C68.3958 84.463 68.2673 84.1766 68.096 83.8741C67.7264 83.2315 67.2555 82.6529 66.7012 82.1607Z" fill="#FF725E"/>
<path d="M66.3345 84.9449C66.2677 85.0072 66.193 85.0603 66.1123 85.1029C65.9024 85.2355 65.6852 85.3562 65.4617 85.4643C64.7225 85.8252 63.9396 86.0889 63.1326 86.2487C62.3255 86.4072 61.5011 86.4594 60.6804 86.404C60.4316 86.3898 60.184 86.3603 59.9389 86.3156C59.847 86.3088 59.7567 86.288 59.6711 86.254C59.6711 86.2299 60.0593 86.2862 60.6831 86.3049C62.3111 86.3617 63.9304 86.0439 65.4162 85.3759C65.9891 85.1216 66.3238 84.9235 66.3345 84.9449Z" fill="#263238"/>
<path d="M65.9355 87.4079C65.8641 87.454 65.7866 87.4901 65.7053 87.515C65.4923 87.5982 65.2752 87.6706 65.0548 87.7318C64.3237 87.936 63.5701 88.0484 62.8113 88.0664C62.0528 88.0849 61.2949 88.0103 60.5545 87.8442C60.2708 87.7773 60.0459 87.7131 59.8933 87.6595C59.8108 87.6382 59.7315 87.6058 59.6577 87.5631C59.6577 87.5417 60.0084 87.6408 60.5733 87.7452C61.3101 87.883 62.0593 87.944 62.8087 87.9272C63.5566 87.908 64.3005 87.8102 65.028 87.6354C65.5848 87.5042 65.9275 87.3945 65.9355 87.4079Z" fill="#263238"/>
<path d="M64.8967 83.2583C64.7106 83.4315 64.5016 83.5783 64.2756 83.6947C63.7432 83.9991 63.176 84.2382 62.5864 84.4068C61.996 84.5741 61.3873 84.6685 60.774 84.6879C60.5208 84.7089 60.2659 84.6954 60.0164 84.6478C60.2658 84.614 60.517 84.5952 60.7686 84.5915C61.3709 84.5426 61.967 84.4359 62.5489 84.273C63.1288 84.1059 63.6909 83.8826 64.2274 83.6064C64.6397 83.3949 64.886 83.2396 64.8967 83.2583Z" fill="#263238"/>
<path d="M60.6643 82.5114C60.6643 82.5302 60.5518 82.5596 60.3698 82.5355C60.1279 82.5017 59.9019 82.3954 59.7217 82.2305C59.5415 82.0656 59.4156 81.8499 59.3605 81.6119C59.323 81.4326 59.3418 81.3174 59.3605 81.3174C59.423 81.6295 59.5834 81.9136 59.8183 82.1283C60.0532 82.343 60.3505 82.4772 60.6669 82.5114H60.6643Z" fill="white"/>
<path d="M61.6388 80.5411C61.6521 80.5571 61.5799 80.6375 61.4996 80.7847C61.3976 80.9787 61.334 81.1904 61.3122 81.4085C61.2963 81.6313 61.2963 81.8549 61.3122 82.0777C61.3122 82.2518 61.3122 82.3615 61.3122 82.3642C61.3122 82.3669 61.2586 82.2625 61.2265 82.0965C61.1803 81.8675 61.1677 81.633 61.189 81.4004C61.2105 81.1624 61.2945 80.9343 61.4326 80.7392C61.5263 80.5839 61.628 80.5277 61.6388 80.5411Z" fill="white"/>
<path d="M63.9999 80.8998C63.7754 81.1209 63.5661 81.3571 63.3735 81.6066C63.218 81.8815 63.0838 82.1679 62.9719 82.4632C62.9743 82.1313 63.0726 81.807 63.255 81.5297C63.4373 81.2523 63.6961 81.0335 63.9999 80.8998Z" fill="white"/>
<path d="M66.1201 81.8074C65.9934 82.1381 65.8016 82.4401 65.5561 82.6953C65.3105 82.9505 65.0162 83.1538 64.6905 83.2931C64.6691 83.2583 65.0626 83.0094 65.4562 82.5998C65.8497 82.1902 66.0907 81.7886 66.1201 81.8074Z" fill="white"/>
<path d="M67.7265 83.4431C67.7425 83.4431 67.7131 83.5501 67.6167 83.6867C67.4858 83.8612 67.316 84.0029 67.1209 84.1005C66.9257 84.1981 66.7105 84.2489 66.4923 84.2489C66.3237 84.2489 66.2246 84.2114 66.2246 84.1927C66.5125 84.1787 66.7942 84.1048 67.0519 83.9757C67.3096 83.8466 67.5375 83.6652 67.7211 83.4431H67.7265Z" fill="white"/>
<g opacity="0.3">
<path d="M61.0123 82.0911C61.5986 81.9252 63.3869 82.0617 65.2341 83.0763C67.0813 84.0909 67.5257 85.2769 67.5257 85.2769C67.0305 85.2582 66.7226 84.7682 66.388 84.3961C65.7508 83.6733 64.8353 83.2771 63.9491 82.9023C63.4086 82.6442 62.8373 82.4561 62.2492 82.3428C61.6559 82.2282 61.0411 82.3389 60.5251 82.6533C60.2574 82.8407 60.0272 83.1004 59.7434 83.2771C59.6092 83.3758 59.4485 83.4321 59.282 83.4388C59.1155 83.4455 58.9508 83.4022 58.8091 83.3146C58.8091 83.3146 59.481 82.5168 61.0123 82.0911Z" fill="black"/>
</g>
<path d="M60.5196 82.7149C60.3402 82.8996 60.5517 83.2503 60.8061 83.2637C61.0654 83.2549 61.3128 83.1521 61.5021 82.9746C61.483 83.0877 61.5071 83.2038 61.5695 83.3C61.6319 83.3962 61.7282 83.4655 61.8393 83.4941C61.9504 83.5227 62.0682 83.5086 62.1693 83.4545C62.2705 83.4005 62.3476 83.3104 62.3856 83.2021C62.4768 83.4148 62.6385 83.5897 62.8433 83.6974C63.0548 83.7831 63.36 83.6519 63.3547 83.4297C63.4609 83.6003 63.6131 83.7377 63.7937 83.8259C63.8393 83.846 63.8885 83.8568 63.9383 83.8576C63.9882 83.8583 64.0377 83.8491 64.0838 83.8303C64.13 83.8116 64.172 83.7838 64.2072 83.7485C64.2425 83.7133 64.2703 83.6713 64.289 83.6251C64.3211 83.7134 64.3737 83.7928 64.4424 83.857C64.511 83.9211 64.5939 83.9681 64.6841 83.9942C64.7744 84.0203 64.8695 84.0247 64.9618 84.0071C65.0541 83.9895 65.1409 83.9503 65.2153 83.8928C65.2835 84.0504 65.3996 84.1825 65.5472 84.2703C65.6998 84.3399 65.9274 84.2703 65.9461 84.0963C65.9461 83.9678 65.8524 83.8634 65.7534 83.7804C64.5056 82.7614 62.9332 82.2246 61.3227 82.2678C61.1384 82.2545 60.9534 82.2795 60.7792 82.3413C60.6051 82.403 60.4456 82.5001 60.3108 82.6265" fill="white"/>
<path d="M55.2672 85.2528C55.1178 85.1814 54.9535 85.1465 54.788 85.1511C54.5974 85.1696 54.4051 85.1587 54.2178 85.1189C54.099 85.0857 53.9945 85.0142 53.9206 84.9155C53.8446 84.8122 53.7925 84.6933 53.768 84.5675C53.7198 84.3185 53.7198 84.0963 53.669 83.8982C53.6346 83.7255 53.5603 83.5632 53.4521 83.4243C53.3409 83.3051 53.2034 83.2134 53.0505 83.1566C53.0505 83.1406 53.2834 83.1191 53.5244 83.3654C53.6552 83.5106 53.7473 83.6865 53.7921 83.8768C53.851 84.0829 53.8563 84.3238 53.9019 84.546C53.9127 84.6479 53.9515 84.7447 54.0138 84.826C54.0762 84.9072 54.1597 84.9697 54.2552 85.0065C54.4308 85.0468 54.6106 85.0657 54.7907 85.0627C54.9218 85.0646 55.0505 85.0986 55.1655 85.1618C55.2458 85.2073 55.2725 85.2528 55.2672 85.2528Z" fill="white"/>
<path d="M55.9471 84.6852C55.9471 84.7013 55.7437 84.7067 55.5429 84.4845C55.4311 84.3566 55.3529 84.203 55.3153 84.0374C55.2744 83.8425 55.2493 83.6447 55.2404 83.4457C55.2319 83.2561 55.1968 83.0687 55.136 82.8889C55.0793 82.7469 54.9987 82.6156 54.8977 82.5007C54.721 82.3053 54.563 82.233 54.5738 82.2116C54.7259 82.2385 54.8645 82.3158 54.9673 82.4311C55.0894 82.5469 55.1869 82.6863 55.2537 82.8407C55.3282 83.0305 55.3707 83.2313 55.3796 83.435C55.3873 83.6272 55.4079 83.8186 55.4411 84.0079C55.4684 84.1577 55.5288 84.2994 55.6178 84.4229C55.71 84.5304 55.8217 84.6195 55.9471 84.6852Z" fill="white"/>
<g opacity="0.3">
<path d="M53.2487 84.182C53.2327 84.182 53.1711 84.0535 53.1631 83.8179C53.155 83.5091 53.2475 83.2061 53.4267 82.9546C53.6058 82.703 53.8619 82.5165 54.1563 82.4231C54.2722 82.3715 54.4014 82.3574 54.5257 82.3829C54.5257 82.407 54.3892 82.4284 54.1911 82.5141C53.9337 82.6244 53.7117 82.8034 53.5492 83.0315C53.3868 83.2595 53.2903 83.5279 53.2702 83.8072C53.27 83.9324 53.2629 84.0575 53.2487 84.182Z" fill="white"/>
</g>
<g opacity="0.3">
<path d="M45.7474 76.9109C45.7474 76.9323 45.5172 76.8708 45.1558 76.8386C44.2014 76.7508 43.2471 77.0072 42.4653 77.5615C42.1681 77.773 42.0048 77.9363 41.9888 77.9202C42.0994 77.7498 42.2411 77.6018 42.4064 77.4838C42.7909 77.1767 43.2348 76.9525 43.7101 76.8253C44.1848 76.6987 44.6802 76.6696 45.1665 76.7396C45.3692 76.7598 45.5662 76.8179 45.7474 76.9109Z" fill="white"/>
</g>
<g opacity="0.3">
<path d="M61.7029 81.0203C60.6699 81.0519 59.6845 81.4626 58.9348 82.1741C59.0054 82.0367 59.1039 81.9154 59.2239 81.8181C59.7743 81.3029 60.4919 81.0035 61.2452 80.9748C61.3992 80.9566 61.5554 80.9721 61.7029 81.0203Z" fill="white"/>
</g>
<path d="M40.0185 82.4338L33.3445 80.766L33.7353 78.817L40.5459 80.5277L40.0185 82.4338Z" fill="#455A64"/>
<path d="M40.5083 80.5491C40.5083 80.5705 40.1068 80.5304 39.4616 80.4875C38.8164 80.4447 37.9249 80.4126 36.9397 80.4447C35.9546 80.4768 35.0658 80.5732 34.4259 80.6589C34.0822 80.7209 33.7355 80.7656 33.3872 80.7927C33.4728 80.7555 33.5627 80.7294 33.6549 80.7151C33.8316 80.6696 34.0886 80.6187 34.4099 80.5625C35.2435 80.4167 36.086 80.3272 36.9317 80.2948C37.7777 80.2667 38.6246 80.2944 39.4669 80.3778C39.7909 80.4126 40.0505 80.4474 40.2299 80.4768C40.3252 80.4902 40.4186 80.5145 40.5083 80.5491Z" fill="#263238"/>
<path d="M40.2673 81.6307C40.0083 81.8136 39.7144 81.941 39.4039 82.0051C39.0934 82.0691 38.7731 82.0683 38.4629 82.0028C38.4629 81.9626 38.8805 81.9733 39.3758 81.8689C39.8711 81.7645 40.2485 81.5959 40.2673 81.6307Z" fill="#263238"/>
<path d="M34.7979 79.1302C34.6079 79.2058 34.4118 79.2649 34.2117 79.3069C34.0265 79.3916 33.8338 79.4588 33.6361 79.5077C33.612 79.481 33.8315 79.2828 34.1715 79.1758C34.3683 79.0867 34.5903 79.0706 34.7979 79.1302Z" fill="#263238"/>
<path d="M36.1902 76.3648C35.7619 77.2215 35.3309 78.0942 35.1756 79.0419C35.0203 79.9896 35.1756 81.031 35.8181 81.7458C36.4606 82.4606 37.6385 82.7095 38.4015 82.1313C38.9048 81.7511 39.1377 81.114 39.2796 80.5009C39.4215 79.8879 39.5018 79.2454 39.7963 78.6885C39.9864 78.3271 40.2728 77.9844 40.2675 77.5775C40.2435 77.3721 40.1723 77.1751 40.0595 77.0018C39.9466 76.8286 39.7951 76.6839 39.6169 76.579C39.1085 76.2306 38.512 76.0331 37.8961 76.0094C37.2803 75.9857 36.6703 76.1368 36.1367 76.4451" fill="#FF725E"/>
<path d="M39.0225 81.4004C38.9377 81.1966 38.7988 81.0198 38.6209 80.8891C38.4233 80.7534 38.1986 80.6621 37.9624 80.6214C37.6669 80.5916 37.3691 80.5916 37.0736 80.6214C36.7674 80.6482 36.4591 80.6384 36.1553 80.5919C35.9039 80.5422 35.6679 80.4329 35.4673 80.2734C35.3307 80.1651 35.2277 80.0203 35.1702 79.8557C35.1447 79.7977 35.1355 79.7339 35.1434 79.671C35.2196 79.8819 35.3531 80.0673 35.5289 80.2064C35.7229 80.3452 35.9465 80.4368 36.1821 80.4742C36.4759 80.5131 36.7731 80.5194 37.0682 80.4929C37.3733 80.4656 37.6806 80.4737 37.9838 80.517C38.2373 80.5603 38.4762 80.6651 38.6798 80.8222C38.8182 80.9261 38.9256 81.0659 38.9904 81.2264C39.0152 81.2809 39.0263 81.3407 39.0225 81.4004Z" fill="white"/>
<path d="M39.3144 79.8504C39.2411 79.6424 39.12 79.4544 38.9611 79.3016C38.7818 79.1468 38.5733 79.0294 38.348 78.9562C38.0635 78.874 37.7724 78.8167 37.4779 78.7849C37.1735 78.7544 36.874 78.686 36.5865 78.5814C36.3484 78.4887 36.1356 78.341 35.9654 78.1504C35.8495 78.023 35.7699 77.8667 35.7351 77.698C35.7185 77.6375 35.7185 77.5737 35.7351 77.5133C35.7877 77.7272 35.8936 77.9243 36.043 78.0862C36.211 78.2528 36.4127 78.3815 36.6346 78.4636C36.9158 78.5547 37.2055 78.6166 37.4993 78.6484C37.8023 78.679 38.1012 78.7418 38.3908 78.8358C38.6318 78.9183 38.8513 79.0537 39.0333 79.232C39.1569 79.3523 39.2489 79.5013 39.301 79.6657C39.3219 79.725 39.3265 79.7887 39.3144 79.8504Z" fill="white"/>
<path d="M39.8845 78.3432C39.8845 78.3432 39.8845 78.287 39.8845 78.1959C39.8588 78.0672 39.7887 77.9516 39.6864 77.8693C39.5316 77.7486 39.3462 77.6735 39.151 77.6525C38.8963 77.6226 38.6458 77.5643 38.4041 77.4785C37.9615 77.3121 37.5746 77.0245 37.2877 76.6486C37.1599 76.5013 37.0682 76.3262 37.02 76.1372C37.0414 76.1372 37.1405 76.3246 37.3654 76.587C37.6611 76.9255 38.0352 77.1865 38.455 77.3473C38.6893 77.4309 38.9315 77.491 39.1778 77.5267C39.3937 77.5564 39.5958 77.6496 39.7587 77.7944C39.8694 77.8964 39.9357 78.0376 39.9434 78.1879C39.9354 78.2923 39.9006 78.3459 39.8845 78.3432Z" fill="white"/>
<g opacity="0.3">
<path d="M36.4042 81.4486C36.4042 81.4486 36.3213 81.4486 36.1954 81.3817C36.018 81.2846 35.8693 81.1424 35.7644 80.9694C35.6115 80.711 35.5259 80.4182 35.5154 80.1181C35.5058 79.7596 35.5309 79.4009 35.5904 79.0473C35.6856 78.4042 35.8581 77.7749 36.1044 77.1733C36.1941 76.9202 36.3165 76.6799 36.4685 76.4585C36.4872 76.4585 36.3614 76.7476 36.2008 77.2108C35.9859 77.8128 35.829 78.4341 35.7323 79.066C35.6747 79.411 35.6469 79.7603 35.6493 80.1101C35.6521 80.3905 35.7228 80.6661 35.8554 80.9132C35.9823 81.1414 36.173 81.3275 36.4042 81.4486Z" fill="white"/>
</g>
<g opacity="0.3">
<path d="M37.6198 81.9921C37.6198 82.0269 37.4164 82.0992 37.154 82.0349C36.8916 81.9707 36.731 81.8154 36.7578 81.7859C36.7846 81.7565 36.9559 81.8475 37.1861 81.9011C37.4163 81.9546 37.6145 81.9519 37.6198 81.9921Z" fill="white"/>
</g>
<path d="M88.8113 63.8011L97.4932 67.5839L103.359 69.7416C103.359 69.7416 107.947 71.1605 109.139 72.7534C111.84 76.3675 115.564 80.9748 113.451 83.9972C111.339 87.0197 109.139 87.0893 106.534 86.5191C103.929 85.9488 99.758 84.1418 97.884 82.1875C96.01 80.2332 82.3059 69.9772 82.3059 69.9772L88.8113 63.8011Z" fill="#FFD5BE"/>
<path d="M83.682 67.6321L84.6324 71.5299C84.7304 71.9299 84.6748 72.3521 84.4765 72.713C84.2782 73.0739 83.9517 73.3472 83.5615 73.4789L65.7159 79.4515C65.5476 79.5096 65.3647 79.5101 65.1961 79.4529C65.0274 79.3957 64.8826 79.2841 64.7843 79.1356L64.4095 78.6002L63.1753 78.9402C62.7202 78.7769 62.3401 78.1022 62.0831 77.4222L58.6831 78.2762L58.4636 77.7569L61.719 76.3889C61.719 76.3889 61.3362 74.6916 61.6092 74.2633L62.7925 73.843C62.7925 73.843 62.7631 72.922 63.0442 72.6061L67.6193 70.9517L80.9353 66.1516C81.2123 66.052 81.5071 66.0119 81.8007 66.0339C82.0942 66.0558 82.3798 66.1393 82.639 66.279C82.8981 66.4186 83.1249 66.6113 83.3046 66.8444C83.4843 67.0776 83.6129 67.3459 83.682 67.6321Z" fill="#FF725E"/>
<path d="M64.407 78.5868L64.3775 78.544L64.3026 78.4155C64.2356 78.3057 64.1446 78.1477 64.0349 77.9363C63.4776 76.8639 63.0867 75.7129 62.8757 74.5229C62.8355 74.2954 62.8087 74.108 62.7954 73.9875L62.7793 73.8403C62.7793 73.8055 62.7793 73.7894 62.7793 73.7894C62.7793 73.7894 62.7793 73.8055 62.7927 73.8403C62.8061 73.8751 62.8114 73.934 62.8195 73.9848C62.8409 74.1133 62.873 74.2981 62.9185 74.5203C63.0339 75.11 63.1887 75.6913 63.3816 76.2604C63.577 76.8284 63.8077 77.3836 64.0723 77.9229C64.1741 78.129 64.2571 78.2977 64.3186 78.4101L64.3856 78.544C64.4016 78.56 64.4097 78.5841 64.407 78.5868Z" fill="#263238"/>
<g opacity="0.3">
<path d="M62.838 73.7412L62.8059 73.6984C62.9245 75.434 63.4768 77.112 64.4122 78.5788C63.8839 76.9725 63.3592 75.36 62.838 73.7412Z" fill="black"/>
</g>
<path d="M62.9078 74.5444C62.9078 74.5631 62.5865 74.5444 62.2037 74.6461C61.9747 74.7101 61.7494 74.787 61.5291 74.8763C61.5827 74.8299 61.6432 74.792 61.7084 74.7639C61.8623 74.6887 62.0239 74.6304 62.1903 74.5899C62.3562 74.5508 62.5259 74.5301 62.6963 74.5283C62.7672 74.5223 62.8386 74.5277 62.9078 74.5444Z" fill="#263238"/>
<path d="M63.0174 75.31C63.0174 75.3287 62.6961 75.31 62.3133 75.4117C62.0843 75.4758 61.8591 75.5527 61.6387 75.642C61.6931 75.5952 61.7545 75.5573 61.8207 75.5295C61.9735 75.4539 62.1342 75.3955 62.2999 75.3555C62.4667 75.3163 62.6373 75.2956 62.8086 75.2939C62.8786 75.2875 62.9492 75.2929 63.0174 75.31Z" fill="#263238"/>
<path d="M63.221 76.0221C62.9702 76.046 62.7215 76.0881 62.4768 76.1479C62.0725 76.255 61.7727 76.4157 61.7646 76.4023C61.8209 76.3525 61.8851 76.3127 61.9547 76.2845C62.1177 76.2041 62.288 76.1396 62.4634 76.0917C62.7077 76.0129 62.9664 75.9892 63.221 76.0221Z" fill="#263238"/>
<path d="M63.4431 76.686C63.3698 76.7002 63.2955 76.7091 63.2209 76.7128C63.0396 76.7378 62.8606 76.7772 62.6855 76.8306C62.2839 76.9564 61.9814 77.1224 61.9734 77.0983C62.0298 77.0482 62.094 77.0075 62.1635 76.9778C62.3257 76.8936 62.495 76.8237 62.6694 76.769C62.917 76.6802 63.1823 76.6517 63.4431 76.686Z" fill="#263238"/>
<path d="M63.7295 77.3794C63.67 77.4308 63.6033 77.4732 63.5314 77.5052C63.3604 77.5878 63.1809 77.6516 62.996 77.6953C62.8109 77.7385 62.6212 77.7592 62.4311 77.7569C62.3525 77.7617 62.2737 77.7527 62.1982 77.7301C62.4616 77.7215 62.7239 77.692 62.9826 77.6418C63.2378 77.5732 63.4875 77.4855 63.7295 77.3794Z" fill="#263238"/>
<path d="M64.032 77.9952C63.9879 78.0559 63.9335 78.1084 63.8713 78.1504C63.7264 78.2638 63.5647 78.3541 63.3921 78.4181C63.22 78.4807 63.0396 78.5177 62.8567 78.5279C62.7814 78.5373 62.705 78.5318 62.6318 78.5118C62.885 78.4934 63.135 78.444 63.3761 78.3646C63.6082 78.267 63.8282 78.1431 64.032 77.9952Z" fill="#263238"/>
<g opacity="0.3">
<path d="M61.7192 76.3942C61.6627 76.47 61.6262 76.5588 61.6131 76.6524C61.6 76.7459 61.6107 76.8413 61.6442 76.9297C61.6771 77.0371 61.7333 77.1359 61.8087 77.2192C61.8841 77.3025 61.9769 77.3682 62.0806 77.4115C61.932 77.0831 61.8111 76.7428 61.7192 76.3942Z" fill="black"/>
</g>
<g opacity="0.3">
<path d="M81.535 72.4027C81.3155 71.9101 80.9996 71.4175 81.0505 70.8794C81.112 70.1539 81.8242 69.5408 81.6769 68.8207C81.6325 68.6507 81.5515 68.4924 81.4396 68.3569C81.3277 68.2214 81.1876 68.112 81.0291 68.0363C80.7111 67.8907 80.3707 67.8002 80.0225 67.7686C75.7016 67.1582 71.8894 69.0884 67.6194 70.9811C67.6462 72.0011 67.5177 73.1228 67.5445 74.1348C67.5367 74.6248 67.5943 75.1136 67.7158 75.5884C67.7782 75.8263 67.8879 76.0492 68.0383 76.2437C68.1887 76.4383 68.3767 76.6005 68.5912 76.7208C69.3114 77.0769 70.1841 76.7208 70.8373 76.2657C71.0286 76.4976 71.2679 76.6851 71.5388 76.8155C71.8096 76.9458 72.1056 77.0158 72.4061 77.0207C73.0084 77.0269 73.6054 76.9084 74.1596 76.6727C74.3797 76.6104 74.5699 76.4706 74.695 76.2791C74.7415 76.1365 74.7506 75.9844 74.7215 75.8372C74.6925 75.69 74.6262 75.5528 74.529 75.4385C74.33 75.2145 74.1909 74.9437 74.1248 74.6514C74.3925 75.3635 75.209 75.7624 75.9747 75.7758C76.7403 75.7892 77.4739 75.4921 78.1672 75.1654C78.8606 74.8388 79.5486 74.4774 80.3089 74.3409C80.7239 74.2659 81.1924 74.2445 81.4842 73.942C81.8616 73.5297 81.7546 72.8872 81.535 72.4027Z" fill="black"/>
</g>
<path d="M72.5907 64.8211L68.5536 68.569L67.3677 71.4523C67.3677 71.4523 67.5551 75.1547 68.2029 75.4278C68.8508 75.7009 69.0061 75.7357 69.255 75.2993C69.504 74.8629 69.8119 72.1002 69.8119 72.1002L70.6953 75.5804L74.2987 77.607C74.2987 77.607 74.9466 76.8038 73.9453 75.4947C73.5481 75.011 73.1797 74.5041 72.8424 73.9768L72.2347 71.5273L73.9614 68.719L73.2975 71.1551C73.255 71.3569 73.2542 71.5653 73.2952 71.7674C73.3361 71.9695 73.418 72.1611 73.5357 72.3304L76.2557 76.2363L79.5057 76.8949C79.5057 76.8949 79.7038 76.2604 79.1202 75.4439L80.8924 75.8454C80.8924 75.8454 82.4987 74.7746 81.2726 73.8322L80.0411 72.8845L79.412 70.9142L79.7734 68.387C79.7734 68.387 79.6128 68.7886 80.8094 68.4539C80.8094 68.4539 83.5615 69.7764 84.9964 70.0415C86.4314 70.3065 88.2786 68.2291 88.2786 68.2291L88.814 63.8065L73.8998 64.0206L72.5907 64.8211Z" fill="#FFD5BE"/>
<path d="M77.7843 67.2733C77.7434 67.3814 77.6923 67.4854 77.6317 67.5839C77.5246 67.7873 77.364 68.0791 77.1846 68.4486C76.9768 68.8791 76.8213 69.333 76.7215 69.8005C76.6091 70.3737 76.6274 70.9648 76.775 71.5299C77.0856 72.74 77.8084 73.6716 78.3197 74.2927C78.5874 74.6086 78.8016 74.8603 78.9515 75.0343C79.0357 75.1204 79.1103 75.2156 79.1737 75.318C79.0779 75.2434 78.9884 75.161 78.906 75.0718C78.7454 74.9084 78.5125 74.6675 78.2394 74.357C77.9206 73.9946 77.628 73.6099 77.364 73.2058C77.037 72.7028 76.793 72.1505 76.6412 71.5701C76.4866 70.9866 76.471 70.375 76.5956 69.7845C76.7016 69.3076 76.8699 68.8467 77.0963 68.4138C77.2837 68.0443 77.463 67.7606 77.5862 67.5651C77.641 67.4607 77.7075 67.3628 77.7843 67.2733Z" fill="#FFB194"/>
<path d="M89.4111 66.9869C89.4129 67.0703 89.4011 67.1535 89.3763 67.2332C89.3575 67.3281 89.3334 67.422 89.304 67.5143C89.2692 67.638 89.2272 67.7595 89.1782 67.8783C89.0577 68.1916 88.9061 68.4921 88.7257 68.7752C88.5046 69.1221 88.248 69.445 87.9601 69.7389C87.667 70.0282 87.345 70.2866 86.999 70.5099C86.7162 70.6907 86.4168 70.844 86.1049 70.9677C85.9737 71.024 85.8371 71.0587 85.7408 71.0935C85.6489 71.1242 85.5549 71.1483 85.4597 71.1658C85.3803 71.1923 85.297 71.205 85.2134 71.2033C85.2134 71.1765 85.5534 71.1016 86.0674 70.8767C86.3668 70.7417 86.655 70.5833 86.9294 70.4029C87.2633 70.1785 87.5753 69.923 87.861 69.6399C88.142 69.3526 88.3956 69.0398 88.6187 68.7056C88.7992 68.4312 88.9559 68.1419 89.0872 67.8409C89.304 67.3161 89.3763 66.9815 89.4111 66.9869Z" fill="#FFB194"/>
<path d="M71.8653 66.7459C71.8813 66.7674 71.5976 66.9574 71.2308 67.359C71.0174 67.5935 70.8248 67.8461 70.6552 68.1139C70.4485 68.4439 70.2694 68.7905 70.1198 69.15C69.9816 69.5125 69.8742 69.8859 69.7985 70.2663C69.744 70.5792 69.7181 70.8964 69.7209 71.214C69.7209 71.7495 69.8307 72.0841 69.8039 72.0894C69.765 72.0194 69.7379 71.9434 69.7236 71.8646C69.696 71.7773 69.6763 71.6877 69.6647 71.5969C69.6421 71.4739 69.6278 71.3496 69.6218 71.2247C69.6048 70.8999 69.6219 70.5742 69.6727 70.253C69.7405 69.8614 69.8472 69.4775 69.9913 69.1072C70.1394 68.7385 70.3232 68.3852 70.5401 68.0524C70.7179 67.7803 70.9233 67.5273 71.1532 67.2974C71.2368 67.2078 71.3262 67.1237 71.4209 67.0458C71.4909 66.9824 71.5661 66.9251 71.6458 66.8744C71.7114 66.8199 71.7856 66.7765 71.8653 66.7459Z" fill="#FFB194"/>
<path d="M109.616 105.591L109.121 105.388L114.662 91.8304C114.683 91.7771 114.725 91.7347 114.779 91.7124C114.832 91.6902 114.891 91.6899 114.944 91.7117L115.036 91.7491C115.089 91.7709 115.132 91.8129 115.154 91.8659C115.176 91.919 115.177 91.9787 115.155 92.0319L109.614 105.59L109.616 105.591Z" fill="#FF725E"/>
<path d="M110.771 105.591L110.307 105.324L117.63 92.6396C117.659 92.5898 117.706 92.5534 117.762 92.5385C117.818 92.5236 117.877 92.5314 117.927 92.5602L118.012 92.6097C118.062 92.6385 118.098 92.6858 118.113 92.7414C118.128 92.7969 118.12 92.8561 118.092 92.9059L110.768 105.59L110.771 105.591Z" fill="#FF725E"/>
<path d="M116.056 103.305C116.055 104.148 115.887 104.984 115.563 105.763C115.239 106.541 114.765 107.249 114.167 107.845C112.96 109.048 111.325 109.722 109.621 109.719C107.917 109.716 106.284 109.036 105.081 107.829C103.878 106.623 103.203 104.987 103.206 103.283L116.056 103.305Z" fill="#455A64"/>
<path d="M113.237 106.603C113.2 106.603 113.35 105.899 113.473 105.034C113.596 104.169 113.65 103.457 113.69 103.46C113.735 103.992 113.708 104.528 113.609 105.053C113.557 105.584 113.432 106.106 113.237 106.603Z" fill="#E0E0E0"/>
<path d="M111.462 106.734C111.46 106.192 111.488 105.65 111.548 105.112C111.563 104.569 111.611 104.028 111.693 103.492C111.752 104.033 111.752 104.579 111.693 105.12C111.675 105.664 111.597 106.206 111.462 106.734Z" fill="#E0E0E0"/>
<path d="M109.192 103.687C109.285 104.57 109.285 105.46 109.192 106.343C109.099 105.46 109.099 104.57 109.192 103.687Z" fill="#E0E0E0"/>
<path d="M107.283 103.752C107.324 103.752 107.313 104.335 107.358 105.047C107.407 105.478 107.434 105.91 107.439 106.343C107.297 105.928 107.223 105.494 107.219 105.055C107.169 104.62 107.191 104.18 107.283 103.752Z" fill="#E0E0E0"/>
<path d="M105.474 106.209C105.304 105.798 105.202 105.361 105.174 104.916C105.099 104.473 105.099 104.021 105.174 103.578C105.214 103.578 105.23 104.169 105.313 104.889C105.396 105.61 105.525 106.199 105.474 106.209Z" fill="#E0E0E0"/>
<path d="M95.7013 92.2202L95.7905 92.1838C95.8438 92.162 95.9035 92.1623 95.9565 92.1846C96.0095 92.2068 96.0516 92.2492 96.0733 92.3025L101.587 105.793L101.091 105.996L95.5787 92.5075C95.5673 92.4807 95.5615 92.4518 95.5615 92.4226C95.5616 92.3935 95.5675 92.3646 95.5789 92.3378C95.5904 92.311 95.6071 92.2868 95.6282 92.2666C95.6492 92.2464 95.6741 92.2306 95.7013 92.2202Z" fill="#263238"/>
<path d="M92.7459 93.0711L92.8294 93.0229C92.8792 92.9942 92.9384 92.9864 92.9939 93.0013C93.0495 93.0162 93.0969 93.0525 93.1256 93.1023L100.413 105.724L99.949 105.992L92.6619 93.37C92.6474 93.345 92.6381 93.3173 92.6345 93.2886C92.6309 93.2599 92.6331 93.2307 92.6409 93.2029C92.6488 93.175 92.6621 93.149 92.6801 93.1264C92.6981 93.1038 92.7205 93.085 92.7459 93.0711Z" fill="#263238"/>
<path d="M87.3711 98.0735C87.4364 101.119 88.692 104.017 90.8688 106.148C93.0457 108.279 95.9705 109.472 99.0165 109.472C102.063 109.472 104.987 108.279 107.164 106.148C109.341 104.017 110.597 101.119 110.662 98.0735H87.3711Z" fill="#FF725E"/>
<path d="M109.888 102.239C109.744 102.349 109.59 102.445 109.428 102.526C108.962 102.761 108.455 102.903 107.934 102.943C107.104 103.013 106.273 102.814 105.565 102.376C105.337 102.245 105.139 102.07 104.981 101.861C104.823 101.651 104.709 101.412 104.647 101.158C104.596 100.871 104.637 100.576 104.764 100.314C104.831 100.174 104.928 100.051 105.05 99.9548C105.172 99.8586 105.314 99.792 105.466 99.7601C105.625 99.7329 105.789 99.7388 105.946 99.7775C106.103 99.8162 106.25 99.8868 106.379 99.9849C106.643 100.195 106.825 100.49 106.895 100.82C106.965 101.165 106.951 101.523 106.853 101.861C106.755 102.199 106.577 102.509 106.333 102.764C105.825 103.323 105.124 103.669 104.371 103.733C103.58 103.783 102.79 103.622 102.082 103.267C101.713 103.093 101.361 102.885 101.032 102.643C100.673 102.405 100.402 102.054 100.264 101.645C100.204 101.43 100.204 101.203 100.264 100.989C100.322 100.765 100.465 100.573 100.663 100.453C100.765 100.395 100.877 100.36 100.994 100.349C101.11 100.339 101.227 100.353 101.338 100.392C101.556 100.466 101.749 100.602 101.892 100.783C102.036 100.966 102.12 101.19 102.133 101.423C102.146 101.652 102.112 101.882 102.031 102.097C101.864 102.523 101.594 102.902 101.247 103.2C100.546 103.82 99.6413 104.159 98.7061 104.153C98.2386 104.155 97.7755 104.064 97.3434 103.885C96.9081 103.719 96.5235 103.442 96.2271 103.082C96.0831 102.899 95.9784 102.687 95.9192 102.461C95.8643 102.234 95.8643 101.998 95.9192 101.771C95.9736 101.542 96.0947 101.335 96.2672 101.176C96.4414 101.015 96.6671 100.92 96.9044 100.909C97.1318 100.908 97.3558 100.964 97.5559 101.072C97.7561 101.18 97.926 101.336 98.0502 101.527C98.1627 101.718 98.2305 101.932 98.2486 102.153C98.2666 102.375 98.2345 102.597 98.1546 102.804C98.0101 103.209 97.7411 103.557 97.3863 103.8C97.0428 104.031 96.6541 104.187 96.2458 104.258C95.492 104.392 94.7187 104.369 93.9742 104.19C93.2297 104.012 92.5302 103.681 91.9196 103.219C91.3628 102.783 90.8943 102.188 90.814 101.503C90.7942 101.335 90.8042 101.164 90.8434 101C90.8869 100.839 90.9615 100.688 91.0629 100.555C91.2589 100.292 91.5447 100.11 91.8661 100.044C92.019 100.013 92.1775 100.023 92.3253 100.073C92.473 100.123 92.6047 100.212 92.7067 100.33C92.893 100.555 92.9885 100.842 92.9744 101.133C92.9558 101.406 92.8633 101.669 92.7067 101.894C92.5656 102.099 92.392 102.28 92.1927 102.429C91.8377 102.71 91.4226 102.904 90.9799 102.997C90.6103 103.075 90.23 103.09 89.8556 103.04C89.3352 102.975 88.8402 102.777 88.4179 102.467L88.2359 102.319C88.185 102.274 88.1476 102.231 88.1154 102.199C88.0833 102.167 88.0217 102.097 88.0217 102.097C88.0217 102.097 88.0592 102.127 88.1261 102.188L88.2493 102.303L88.434 102.445C88.8577 102.74 89.3481 102.924 89.8609 102.981C90.2298 103.026 90.6037 103.007 90.9665 102.927C91.3975 102.832 91.8006 102.639 92.1445 102.362C92.3481 102.217 92.5191 102.031 92.6463 101.815C92.7736 101.6 92.8543 101.36 92.8834 101.112C92.8964 100.842 92.8087 100.577 92.6371 100.368C92.5439 100.264 92.4253 100.186 92.293 100.142C92.1606 100.098 92.019 100.089 91.8821 100.116C91.5863 100.182 91.3254 100.356 91.1499 100.603C90.9744 100.85 90.8966 101.154 90.9317 101.455C91.0612 102.119 91.4456 102.706 92.0026 103.09C92.601 103.539 93.2853 103.86 94.013 104.033C94.7407 104.205 95.4962 104.226 96.2324 104.094C96.6222 104.025 96.9933 103.876 97.322 103.655C97.6539 103.428 97.9051 103.1 98.0395 102.721C98.112 102.534 98.1415 102.333 98.1258 102.132C98.11 101.932 98.0494 101.738 97.9485 101.564C97.837 101.393 97.6846 101.253 97.5051 101.156C97.3256 101.058 97.1246 101.007 96.9204 101.008C96.716 101.014 96.5205 101.092 96.369 101.23C96.2161 101.374 96.1098 101.56 96.0638 101.765C96.0133 101.971 96.0112 102.186 96.0576 102.394C96.104 102.601 96.1978 102.794 96.3315 102.959C96.6161 103.302 96.9853 103.564 97.4023 103.72C97.8173 103.891 98.2624 103.978 98.7114 103.974C99.6124 103.978 100.484 103.653 101.161 103.058C101.491 102.774 101.746 102.414 101.905 102.009C101.99 101.819 102.024 101.61 102.003 101.403C101.983 101.196 101.91 100.998 101.79 100.828C101.678 100.662 101.511 100.54 101.318 100.485C101.125 100.43 100.918 100.446 100.735 100.528C100.575 100.644 100.455 100.807 100.393 100.994C100.331 101.182 100.33 101.384 100.39 101.572C100.522 101.951 100.774 102.277 101.107 102.499C101.429 102.735 101.773 102.94 102.133 103.112C102.821 103.458 103.589 103.616 104.357 103.57C105.081 103.511 105.755 103.181 106.245 102.646C106.476 102.405 106.645 102.111 106.738 101.791C106.832 101.47 106.846 101.132 106.78 100.804C106.717 100.498 106.548 100.223 106.304 100.028C106.187 99.9373 106.054 99.8718 105.911 99.8354C105.768 99.7991 105.619 99.7925 105.474 99.8163C105.336 99.8446 105.208 99.9047 105.097 99.9916C104.987 100.078 104.899 100.19 104.839 100.317C104.717 100.559 104.677 100.834 104.724 101.101C104.784 101.345 104.891 101.573 105.041 101.774C105.19 101.975 105.378 102.144 105.594 102.271C106.289 102.704 107.102 102.906 107.918 102.849C108.433 102.815 108.937 102.683 109.404 102.461C109.562 102.381 109.672 102.317 109.757 102.269C109.843 102.22 109.888 102.239 109.888 102.239Z" fill="white"/>
<path d="M119.644 109.719C119.644 109.756 93.5205 109.789 61.3042 109.789C29.0878 109.789 2.95923 109.756 2.95923 109.719C2.95923 109.681 29.0771 109.649 61.3042 109.649C93.5312 109.649 119.644 109.681 119.644 109.719Z" fill="#263238"/>
</svg>
